<?xml version="1.0" encoding="utf-8"?>
<svg viewBox="7.9 79.3 652.6 138.1" xmlns="http://www.w3.org/2000/svg">
  <defs>
    <style type="text/css">
	.st0{fill:#7F8C34;}
	.st1{fill:#585857;}
</style>
  </defs>
  <g>
    <g>
      <path class="st0" d="M152.5,149.4h0.5c0,0.1,0.2,0.2,0.3,0.4h0.4v-0.4c-0.3-0.2-0.6-0.5-0.8-0.8c-0.2,0-0.3,0-0.3-0.1 c-0.3-0.4-0.6-0.1-0.6-0.7c0-0.2,0-0.3,0-0.3c0.3-0.2,0.5-0.5,0.8-0.7v-0.4c-0.3-0.2-0.6-0.5-0.8-0.8c-0.4,0-0.8,0-1.2-0.4 c-0.4,0-0.7-0.1-0.8-0.4H149c0,0.5-0.3,0.6-0.6,0.8v-0.3c0-0.1,0.1,0,0.2-0.1v-0.4c-0.5-0.3-0.8-0.8-1.3-1.2 c0.1,0.3-0.1,0.7-0.3,0.7c-0.3,0-0.6-0.4-0.7-0.5c0.2-0.1,0.4-0.2,0.6-0.4v-0.6c-0.2-0.1-0.4,0.1-0.7-0.3c-0.3,0-0.9,0.2-0.9-0.3 c0-0.2,0.2-0.3,0.2-0.4h1.1c0,0.1,0,0.1,0,0.2h0.4c0-0.1,0-0.3-0.1-0.3c-0.2-0.2-0.5-0.3-0.7-0.4c0-0.4-0.2-0.8-0.2-1 c0-0.2,0.2-0.3,0.2-0.4c0.2,0.1,0.3,0.2,0.4,0.6c0.2-0.1,0.3-0.2,0.4-0.2c-0.2-0.5-0.6-0.8-0.6-1c0-0.2,0-0.1,0-0.2 c0.5,0,0.7-0.5,1-0.8c-0.4-0.1-0.7-0.1-1-0.1c-0.1-0.1-0.3,0-0.3-0.2V137c-0.2-0.1-0.2-0.2-0.2-0.4c-0.2,0.1-0.2-0.3-0.2-0.4 c-0.3,0.2-0.4,0.3-0.5,0.4c-0.1,0-0.2,0-0.5,0.1c-0.1,0.4-0.5,0.2-0.6,0.4c-0.2,0.2-0.2,0.4-0.4,0.4c-0.2,0-0.1,0-0.2,0v-0.4 c0.1-0.1,0.1-0.1,0.2-0.1c0-0.4,0.1-0.8,0.6-1v-1.3c-0.3-0.2-0.3-0.3-0.3-0.4c0-0.2,0-0.2,0.1-0.4c0.3,0,0.4-0.2,0.7-0.2 c-0.3-0.2-0.7-0.2-0.8-0.1v-0.8c-0.2,0.1-0.4,0.3-0.6,0.4c0,0.2,0,0.4-0.1,0.5h-0.8c0-0.2-0.2-0.2-0.3-0.3 c0.3-0.1,0.3-0.3,0.2-0.5c0.6,0,1-0.7,1.3-1.1c-0.2-0.2-0.4-0.5-0.6-0.5h-1c0,0.2,0,0.3,0,0.4l-0.3-0.1c0-0.1,0-0.1,0-0.1 c0.2-0.2,0-0.3,0.4-0.6v-0.4c-0.2,0-0.2-0.1-0.3-0.2c-0.3,0-0.5,0-0.7-0.1v-0.2c0.1,0,0.1,0,0.2-0.1c0.1-0.4,0.3-0.6,0.5-0.7 c0.2,0,0.4-0.2,0.7-0.2c0.4-0.3,0.2-0.6,0.8-0.6c0.2,0,0.3,0.1,0.6,0.2v-1.4c0.1-0.1,0.1,0,0.3-0.1v-1c0-0.2,0.1-0.1,0.1-0.1 c0-0.2,0-0.3,0-0.4c0.2-0.1,0.3-0.4,0.6-0.5v-0.4c-0.1,0-0.2,0-0.2,0c0-0.2-0.2-0.4-0.2-0.6c0-0.3,0-0.3,0.2-0.5 c0.1,0.5,0.6,0.3,1,0.5v0.4c-0.2,0.1-0.4,0.5-0.7,0.4v0.4c0.2,0,0.2,0.1,0.2,0.2h2.4c0.2-0.4,0.3-0.2,0.4-0.2 c0.3-0.3,0.5-0.4,0.8-0.6c0.1-0.1,0.1-0.2,0.2-0.3c0-0.2,0-0.5,0.1-0.7c0.4-0.1,0.2-0.2,0.5-0.3c0.1-0.3,0.2-0.5,0.2-0.7 c0.2,0,0.5-0.1,0.7-0.1c0.2,0,0.2-0.1,0.2,0v0.4c-0.3,0.2-0.3,0.5-1,0.4c0,0.3,0.3,0.5,0.6,0.5c0.2,0,0.4-0.1,0.7-0.2 c0.1-0.2,0.2-0.4,0.3-0.4c0.2,0,0.4,0.3,0.4,0.4h0.4c0-0.8,0.7-0.4,0.8-1c-0.4-0.2-0.6-0.4-0.5-0.8h-0.5c0,0.1,0,0.2-0.1,0.2 c-0.2-0.2-0.5-0.4-0.8-0.4c-0.2,0-0.4,0.2-0.6,0.2c-0.2,0-0.2-0.2-0.4-0.2c-0.3,0-0.7,0.5-0.9,0.6c0,0.2,0,0.5,0,0.7 c-0.2,0.1-0.2,0.3-0.4,0.3c-0.2,0-0.1,0-0.2,0V123h-0.3c-0.2,0,0,0.1-0.1,0.1c-0.2,0-0.3-0.1-0.5-0.2c-0.1-0.1-0.1-0.1-0.1-0.2 h-0.4c0,0.2,0,0.4,0,0.5c-0.2,0.2-0.2,0.4-0.6,0.4c-0.2,0-0.2,0-0.2,0V123h-0.5c0,0.1,0,0.1-0.2,0.1c-0.2,0-0.1,0-0.2,0v-0.6 c0.1,0,0.2-0.1,0.3-0.3c0.1,0,0.3,0,0.5-0.1c-0.1-0.2,0.3-0.1,0.4-0.2c0-0.2,0.2-0.3,0.2-0.5V121h-0.4c0,0.4-0.5,0.9-0.8,0.9 c-0.2,0-0.1,0-0.2,0v-0.4c0.2-0.1,0.2-0.2,0.6-0.3v-0.6c-0.4-0.2-0.4-0.5-0.4-0.5c0-0.2,0.2-0.3,0.4-0.3v-0.4 c-0.3,0-0.4-0.2-0.6-0.1c-0.1,0.1-0.1,0.1-0.1,0.1c-0.2-0.3-0.3-0.2-0.3-0.5c0-0.2,0-0.2,0-0.3h0.5c0,0.1,0,0.1,0.1,0.2 c0.3,0.1,0.4,0.2,0.6,0.2c0.2,0,0.3-0.2,0.4-0.2v-0.8h1.2v-0.4c-0.2-0.1-0.4,0.1-0.6-0.2h-0.8c0,0.2-0.3,0.8-0.6,0.8 c-0.2,0-0.4-0.2-0.4-0.4c0-0.3,0.6-0.5,0.8-0.6c0.1-0.2,0.1-0.5,0.2-0.7c0.1-0.3,0.3-0.5,0.3-0.5v-0.6c-0.2,0.1-0.3,0.1-0.5,0.1 c-0.2,0-0.5-0.1-0.5-0.4c0-0.2,0-0.2,0.1-0.3c0.7,0.1,1.4-0.3,1.4-1h0.2c0,0.1,0.2,0.2,0.3,0.2c0.1-0.3,0.3-0.2,0.4-0.2v-0.4h-0.4 c0.1-0.5-0.4-0.3-0.4-0.9c0-0.7,0.8-0.5,0.8-1.1c0-0.2-0.2-0.3-0.2-0.5c0-0.2-0.1-0.2,0.1-0.3c0.3,0,0.6-0.4,1.1,0v-0.6 c-0.3-0.1-0.4-0.2-0.6-0.3v-0.3c0.3-0.1,0.8-0.1,0.8-0.4c0-0.2-0.2-0.2-0.2-0.4c-0.2,0-0.2,0.2-0.3,0.2c-0.3,0-0.5,0.2-0.8,0.2 c-0.1,0-0.5,0.6-0.8,0.6c-0.2,0-0.2,0-0.2,0c0-0.3-0.3-0.5-0.3-0.7c0-0.2,0-0.2,0.1-0.4c0.2,0,0.4,0,0.7-0.1 c0-0.2,0.3-0.1,0.3-0.3V108c-0.4,0-0.4-0.2-0.4-0.4c0-0.2,0-0.1,0-0.2c0.1,0.2,0.4,0.5,0.6,0.6h0.6v-0.3c0-0.2-0.1,0.1-0.2-0.1 v-1.1c-0.4-0.1-0.4-0.2-0.6-0.3v-1.2c-0.7,0-0.3-0.7-0.4-1.1h-0.4c0,0.7-0.1,0.8-0.3,1.1h-1c-0.2,0.3-0.4,0.6-0.7,0.9 c0.2,0.1,0.2,0,0.2,0.2c0,0.2,0,0.1,0,0.2h-0.3v-2c-0.3-0.1-0.5-0.2-0.7-0.2c-0.1-0.2-0.3-0.4-0.5-0.4c0-0.3-0.2-0.7-0.2-1.2 c-0.3-0.2-0.6-0.2-0.7-0.2c0.3-0.3,0.3-0.3,0.7-0.3c0.1-0.1,0.1-0.1,0.2-0.2c0-0.2,0-0.3,0-0.4c0.2-0.2,0.5-0.2,0.8-0.2 c0.2-0.3,0.4-0.6,0.6-0.6c0.2,0,0.5,0.3,0.5,0.5s0,0.1,0,0.2h-0.3c-0.2,0,0-0.2-0.2-0.2l-0.3,0.1c0.2,0.4,0.5,0.4,0.6,0.9h0.5 c-0.1-1.1-0.1-1.2,0-1.3c0.3,0,0.6-0.2,0.8-0.2c0.1,0,0.2-0.1,0.4,0.2h0.8v-0.5c-0.3,0-0.5,0-0.7-0.1c0,0,0-0.1-0.1-0.2 c-0.3,0-0.7-0.1-0.7-0.4c0-0.2,0.2-0.5,0.3-0.7c0-0.3,0-0.6,0.1-0.8c0.1-0.1,0.1-0.2,0.1-0.2c0.1-0.1,0.3-0.1,0.4-0.1 c0.1-0.1,0.2-0.2,0.3-0.3c0.1,0,0.2,0,0.3-0.1c0-0.2,0.3-0.3,0.2-0.5c-0.5,0-0.4-0.5-0.7-0.8c-0.4,0.3-0.3,0.4-0.4,0.6h-0.2 c-0.1-0.2-0.2-0.3-0.3-0.5c0.2-0.2,0.2-0.3,0.2-0.4h0.3c0,0.1,0.1,0.2,0.2,0.2c0.2-0.2,0.4-0.5,0.7-0.8h-1.2 c0.2,0.3-0.7,0.2,0.1,0.2l-0.5,0.7h-0.6v-0.9c0-0.2,0.2-0.4,0.2-0.5h0.8v-1h-0.4c-0.3,0.5-0.2,0.4-0.6,0.4c-0.1,0-0.2,0.1-0.4-0.2 h-0.4c0,0.2-0.1,0.2-0.2,0.2v0.4c0.3,0.1,0.4,0.2,0.6,0.2v0.7c-0.3,0.2-0.2,0.3-0.2,0.4h-0.4c-0.2-0.2-0.3-0.2-0.3-0.6 c-0.4,0-0.8-0.2-0.6-0.6c-0.2,0.1-0.6,0.6-0.6,0.7c0,0.2,0.2,0.2,0.2,0.4c0,0.2-0.2,0.4-0.2,0.6h-0.3c-0.2-0.3-0.3-0.1-0.3-0.5 c0-0.3,0.1-0.2,0.4-0.8c-0.1,0-0.1-0.1-0.2-0.3h-1c-0.1,0.3-0.1,0.2-0.3,0.2c-0.6,0-0.4-0.7-0.4-1.2c-0.3-0.1-0.4-0.2-0.4-0.4h-1 v0.5c0.3-0.1,0.5-0.1,0.6,0c0,0.4,0.1,0.3,0.1,0.3v1h-0.3v-0.6c-0.7,0.2-0.7-0.3-1-0.5c-0.1,0-0.3,0-0.3,0c-0.2-0.3-0.2-0.7-0.3-1 c-0.4,0.2-0.6,0.5-1,0.8c-0.1,0.2-0.4,0.9-0.6,0.9c-0.2,0-0.3-0.2-0.4-0.2c-0.1,0.2,0.2,0.3,0.2,0.5c0.3,0.1,0.4,0.2,0.5,0.3 c0,0.1,0,0.3,0,0.5c0.1,0.1,0.4,0.4,0.4,0.6c0,0.2,0,0.1,0,0.2c-0.3,0-0.6,0-0.9,0c0,0.1-0.1,0.2-0.2,0.2 c-0.1,0.2-0.1,0.3-0.1,0.5h-0.2v-0.4c0,0,0,0,0.2,0v-0.5c-0.6,0.1-1.3,0-1-0.8h-1.3v0.7c0.3,0.1,0.2,0.2,0.2,0.3 c0,0.2,0,0.2,0,0.3h-0.3c0-0.1-0.3-0.2-0.3-0.3c0-0.2,0.1-0.2,0.2-0.2v-0.4c-0.3-0.1-0.4-0.7-0.4-1c-0.2,0-0.2-0.1-0.2-0.2 c0.2-0.1,0.3-0.2,0.6-0.3c-0.1-0.2-0.2-0.3-0.2-0.5c0-0.3,0.1-0.4,0.6-0.5c0-0.2,0.1-0.2,0.2-0.4c0-0.4,0.2-0.7,0.2-1 c0.3,0,0.6-0.2,0.7-0.2c0.4,0,0.4,0.2,1,0.2c0-0.2,0-0.3,0.1-0.4h0.7v-0.7c-0.3-0.1-1.2,0.2-1.2-0.4c0-0.3,0.4-0.6,0.6-0.7 c0.1-0.5,0.2-1.1,0.3-1.6c0.2,0,0.3-0.1,0.5-0.2c0.3-0.4,0.6-0.9,0.6-1v-0.5h-0.4c0.2,0.4-0.3,0.7-0.5,0.9 c-0.2,0.2-0.4,0.3-0.6,0.4c-0.1,0.1,0,0.1-0.1,0.2c-0.2,0-0.4,0-0.7,0c0,0.2,0,0.4,0,0.6c-0.3,0.3-0.7,0.7-1,1h-0.5 c-0.2-0.3-0.6-0.6-0.6-0.8v-1c0-0.2,0.2-0.2,0.2-0.4c0.2-0.1,0.4-0.3,0.6-0.5c0.2-0.4,0.3-0.4,0.3-0.4v-0.4c-0.3,0-0.6,0-0.8-0.1 c-0.1-0.1-0.3-0.3-0.5-0.3v0.6c0.3,0.2,0.2,0.2,0.2,0.3c0,0.2,0,0.2,0,0.2c-0.5-0.2-0.3-0.4-0.4-0.5c-0.3-0.2-0.3-0.2-0.3-0.5 c0-0.2-0.1-0.3,0.2-0.4c0.1,0,0.3-0.1,0.4-0.3h-0.6c-0.2,0.3-0.4,0.4-0.5,0.6c-0.2,0-0.4,0.1-0.5,0.2c0,0.3,0,0.5-0.1,0.6 c-0.2,0-0.4,0-0.7,0.1c0.1,0.4-0.5,0.1-0.7,0.2c0,0.2,0,0.4-0.1,0.5h-1c0.1,1.5,0.1,1.6,0,1.6c-0.1-0.1-0.2-0.1-0.3-0.2v-1 c-0.2,0-0.2,0-0.2-0.2c0-0.2,0.2-0.6,0.2-0.9c0.2-0.1,0.2,0,0.2-0.3c0-0.2-0.3-0.6-0.4-0.9h-0.4v1.4c0,0.2,0.1-0.1,0.1,0.1 c0,0.2,0,0-0.1,0.1c-0.1,0.2-0.1,0.4-0.1,0.6c-0.3,0.2-0.5,0.4-0.8,0.6c0,0.3-0.1,0.6-0.2,0.8c-0.1,0.1-0.2,0.2-0.2,0.3 c-0.7,0-0.8,0-0.9,0c0-0.4-0.1-0.7-0.2-1c-0.2-0.3-0.5,0-0.6-0.4c-0.2-0.1-0.4-0.1-0.5-0.1v-1.5c-0.2,0-0.2,0-0.2-0.2 c0-0.2,0.1-0.1,0.2-0.1v-0.8c-0.3,0.1-0.4,0.3-0.7,0.4c0,0.1,0.2,0.3,0,0.3h-0.5c-0.1-0.1-0.2-0.2-0.2-0.3v-0.9 c0.3-0.3,0.6-0.7,1.1-0.5v-0.5c-0.1,0-0.1,0.1-0.1-0.2c0-0.2,0.2-0.1,0.1-0.2v-0.5h-0.4c0,0.2,0,0.4,0,0.5 c-0.3,0.4-0.9,1.1-1.2,1.1c-0.2,0-0.1,0-0.2,0v-0.6c0.2-0.1,0.4-0.3,0.6-0.5c0-0.2,0.1-0.5,0.4-0.7v-0.5c-0.4,0-0.6-0.2-0.6-0.4 h-0.5c0,1.2,0,1.3,0,1.4h-0.5c-0.1-0.1-0.2-0.2-0.2-0.4c-0.2-0.1-0.4-0.1-0.5-0.1c-0.2-0.3-0.2-0.5-0.2-0.7c-0.1,0-0.1,0-0.2-0.1 v-1.8c-0.2-0.1-0.2-0.2-0.2-0.4H121c0.2,0.4,0.4,0.7,0.4,0.9c0,0.1,0,0.2-0.2,0.3c0,0.1,0,0.4,0,0.5c-0.3,0.3-0.7,0.7-1,1 c-0.2,0-0.5,0.1-0.7,0.2c0.3,0.3,0.4,0.5,0.4,0.6c0.4,0.3,0.3,0.2,0.3,0.6c0,0.2-0.4,1.1-0.4,1.8c-0.7,0-0.8,0-0.8,0 c0-0.2-0.2-0.4-0.2-0.5c0-0.2,0.2-0.1,0.2-0.3v-0.7c-0.4-0.1-0.5-0.3-0.6-0.3c-0.2,0.3-0.3,0.2-0.4,0.2c-0.2,0-0.3,0-0.4,0v-1.4 c-0.3,0-0.5,0-0.6,0v-0.5c0.1-0.1,0.2-0.1,0.4-0.1V82c-0.3-0.1-0.5-0.6-0.4-1h-0.6c-0.1,0.3-0.2,0.3-0.4,0.4v0.4 c0.3,0.1,0.4,0.3,0.6,0.3c-0.1,0.1-0.2,0.2-0.3,0.3c0-0.1,0-0.1-0.1-0.2c-0.3,0-0.4-0.2-0.6-0.2c0-0.2-0.2-0.3-0.2-0.5 c0-0.2,0.2-0.4,0.2-0.6h0.4c0-0.3,0-0.5,0-0.6h0.9v-1c-0.3,0.2-0.6,0.4-0.9,0.6c-0.1,0.1-0.1,0.2-0.1,0.2c-0.1-0.1,0-0.1-0.1-0.2 H115c0,0.3,0,0.2-0.2,0.4V82c0.2,0.1,0.2,0,0.2,0.1v1.3c-0.2,0.1-0.3,0.2-0.4,0.2c-0.2,0-0.3-0.1-0.5-0.1c-0.3,0-0.4,0.1-0.6,0.2 c0,0.2,0,0.3,0,0.3c-0.1,0.1-0.3,0.2-0.3,0.4c-0.1,0.1,0.2,0.3-0.1,0.3h-0.4c0,0.3,0,0.5-0.1,0.7c-0.1,0.1-0.5,0.5-0.5,0.7 c0,0.2,0.1,0,0.1,0.2v1.4c0.3,0,0.3,0.2,0.5,0.1c0-0.1,0-0.1,0.2-0.1c0.2,0,0.1,0,0.2,0v0.3c-0.3,0.1-0.4,0.3-0.8,0.4 c-0.3,0.2-0.3,0.6-0.8,0.6v0.5c0.3,0,0.7,0.4,0.7,0.6c0,0.2-0.1,0.3-0.1,0.5c0,0.4,0.4,0.2,0.4,0.8c0,0.2,0,0.2,0,0.2 c-0.1,0.1-0.2,0.2-0.3,0.3c0-0.1-0.2-0.2-0.3-0.3c0-0.3,0-0.7-0.2-1h-0.6c0,0.2,0.1,0.3,0.2,0.4v0.8c-0.1,0.1-0.2,0.2-0.3,0.2 h-1.5v-0.5c-0.2,0.1-0.4,0.4-0.6,0.4c-0.2,0-0.1,0-0.2,0c-0.1-0.3,0.1-0.9-0.4-0.9c0,0.9-0.4,1.8-1.4,1.8 c-0.2,0.2-0.4,0.5-0.9,0.5c-0.2,0-0.3,0-0.3-0.1c0-0.3-0.1-0.7-0.1-1.1c-0.2,0-0.3-0.2-0.4-0.2c0,0.4-0.3,0.5-0.4,0.5 c-0.1,0-0.4-0.2-0.4-0.3c0-0.2,0-0.1,0-0.1c0.3,0.1,0.4-0.4,0.8-0.4c0-0.2,0-0.3,0.1-0.5c0.4-0.1,0.6-0.3,0.7-0.6h-0.7 c-0.1,0.3-0.1,0.3-0.4,0.6c-0.1,0.1-0.1,0.3-0.1,0.4c-0.1,0.1-0.2,0.2-0.3,0.2c-0.3,0-0.4-0.3-0.6-0.4c-0.1,0.2-0.3,0.6-0.7,0.6 c-0.2,0-0.2,0-0.3,0v-0.3c0.2-0.1,0.3-0.3,0.5-0.3v-0.7c-0.2,0-0.3,0.2-0.5,0.3c0,0.2,0.2,0.4,0,0.4h-0.7v-0.5 c0.1-0.1,0.3-0.1,0.3-0.3h-0.4v0.5c-0.3-0.2-0.9,0-1.3,0c0.1,0.3,0.3,0.5,0.4,0.6c-0.3,0.2-0.4,0.3-1,0.3 c-0.1,0.4,0.1,0.9-0.3,0.9c-0.1-0.1-0.3-0.2-0.3-0.2v-2c0.1-0.1,0.2-0.2,0.3-0.3h1.1c-0.1-0.2-0.2-0.2-0.3-0.4 c-0.3-0.1-0.6-0.2-0.8-0.2c-0.2,0-0.5,0.1-0.7,0.2c-0.2,0.4-0.6,0.7-1.1,0.8c0.3,0.4,0.6,0.2,0.6,0.7c0,0.2,0,0.2,0,0.3h-1 C97.6,91,97,91.1,96.5,91c0.2-0.1,0.4-0.3,0.4-0.5c0.1,0,0.3,0,0.3,0c0.2-0.2,0.2-0.3,0.3-0.4c0.5-0.1,0.9-0.5,1.7-0.6 c0.3-0.2,0.1-0.6,0.7-0.5v-0.6c-0.4-0.2-0.9-0.2-1.2-0.3c-0.1-0.4-0.3-1-0.8-1.3v0.4c0.2,0.2,0.2,0.1,0.2,0.3c0,0.2,0,0.2,0,0.2 c0,0.1-0.2,0.1-0.2,0.2c0.2,0.1,0.3,0.2,0.4,0.4c0.2,0,0.4-0.2,0.4,0V89h-0.7c-0.1,0.3-0.2,0.4-0.4,0.5c0,0.2,0,0.4-0.1,0.5H97 c-0.1-0.2-0.1-0.3-0.2-0.6c0-0.6,0-0.7,0-0.8c0.2,0,0.6,0,0.7-0.1c-0.3-0.5-1.3,0-1.2-1.1c-0.4-0.2-0.4-0.3-0.4-0.3h-0.4 c0,0.2,0,0.2,0,0.2c-0.4,0-0.8,0.2-1.3,0.2c-0.1,0.2-0.1,0.2-0.2,0.2c-0.1-0.2-0.4-0.4-0.4-0.5c0-0.2,0-0.1,0-0.2h1.1 c0.3-0.3,0.3-0.2,0.3-0.7c-0.2,0-0.3,0-0.4-0.1v-0.7c-0.4,0.2-0.4-0.2-0.6-0.2c0,0.5-0.2,1-0.2,1.4c-0.3-0.1-0.8,0.2-0.8,0.5 c0,0.2,0,0.2,0,0.3c0.1,0.1,0.1,0,0.2,0.1c0,0.3,0,0.6,0,0.9c0.1,0.2,0.2,0,0.2,0.4c0,0.2,0,0.2,0,0.3h-0.5v-1.4h-0.5v0.6 c0.2,0,0.2,0.1,0.2,0.2c0,1.5,0,1.6-0.1,1.6c-0.1,0-0.2-0.2-0.3-0.3c0-0.2-0.1-0.4-0.2-0.7c-0.3,0-0.6,0-0.7-0.1 c0-0.7-0.5-0.2-0.5-0.9c0-0.1,0.1-0.3,0.3-0.6c-0.3-0.2-0.3-0.2-0.3-0.3c0-0.3,0.4-0.7,0.8-0.5v-0.4c-0.7,0.1-0.7-0.2-0.8-0.6 h-0.4c0,0.2,0,0.2-0.2,0.2c-0.2,0-0.3-0.3-0.6-0.4c-0.2,0.3-0.4,0.6-0.6,0.8c0,0.2,0,0.5-0.1,0.6h-1.5c-0.1-0.1,0-0.1-0.1-0.2 h-0.5c0.1,0.4-0.3,0.6-0.5,0.8h-1.1c0.1,0.3,0.1,0.6,0.1,0.7h-0.6c-0.1-0.2-0.3-0.4-0.5-0.4c0.3,0.4,0.6,0.8,0.8,1.3 c0.2,0,0.3,0,0.4,0c0.2,0.3,0.6,0.6,0.6,0.8c0,0.2,0,0.1,0,0.2h-0.4v0.6c0.3,0,0.3,0.2,0.4,0.3V92c0,0.2-0.1,0.1-0.1,0.1 c0,0.3,0,0.5-0.1,0.7c-0.2,0.1-0.3,0.3-0.5,0.4c0-0.1,0-0.1,0-0.2h-0.8c-0.1,0.6-0.8,1-0.9,1c-0.2,0-0.2,0.1-0.3,0v-0.3h-0.5 c-0.1,0.2,0,0.3-0.1,0.4h-0.4c-0.1-0.1-0.1-0.1-0.1-0.2c-0.3,0-0.6,0-0.9-0.1c-0.1-0.1-0.2-0.1-0.3-0.1c-0.1,0.1-0.1,0.1-0.1,0.2 v1.3c-0.4,0.2-0.2,0.3-0.3,0.4c-0.3,0-0.6,0-0.8,0c-0.5,0.3,0.1,1.1-0.6,1.2v0.7c0.6,0.1,0.7,0.8,0.7,1c0,0.6-0.3,0.5-0.6,1 c-0.1,0-0.4,0-0.6,0.1v2.3h-0.5c-0.1-0.2-0.3-0.2-0.3-0.4c-0.3,0-0.4-0.2-0.6-0.3c0-0.3-0.2-0.5-0.4-0.5v1 c0.2,0.3,0.1,0.2,0.4,0.5v1c-0.4,0.1-0.3,0.8-0.7,1.2c0.3,0.2,0.2,0.2,0.2,0.4c0,0.2,0,0.2,0,0.3h-0.3v-0.7 c-0.3,0-0.5-0.2-0.7-0.2c-0.1,0.2-0.2,0.3-0.2,0.5c0.1,0,0.1,0,0.2,0.1c-0.2,0.1-0.4,0.5-0.8,0.4c0,0.2,0,0.4,0,0.6 c-0.2,0.1-0.2,0.3-0.4,0.3c-0.2,0-0.1,0-0.2,0v-0.5c0.1-0.1,0.1,0,0.2-0.1v-0.4c-0.2-0.2-0.2-0.4-0.3-0.4c-0.1,0-0.1-0.2-0.1-0.2 c-0.3-0.1-0.3-0.3-0.4-0.8c-0.2,0-0.2,0-0.2-0.2c0-0.2,0.2-0.5,0.4-0.8h-0.4c0,0.2,0,0.2-0.2,0.2c-0.2,0-0.1,0-0.2-0.1 c0-0.1,0-0.4-0.1-0.5c-0.3,0.2-0.2-0.3-0.2-0.4c0-0.2,0.2-0.5,0.2-0.7c0-0.2-0.2-0.3-0.2-0.5h-0.4c-0.1,0.3-0.2,0.4-0.3,0.4 c-0.2,0-0.6-0.2-0.6-0.5c0-0.2,0.2-0.4,0.5-0.4c-0.1-0.7-0.5-0.4-0.7-0.5v-0.3c0.2-0.1,0.4-0.2,0.7-0.2v-0.8 c-0.1-0.1-0.4-0.2-0.4-0.4c0-0.2,0.2-0.4,0.4-0.4v-1.4h-0.6c-0.2,0.3-0.3,0.3-0.6,0.4c-0.1,0.2-0.2,0.3-0.4,0.3v0.4 c0.1,0,0.4,0.2,0.4,0.5c0,0.2,0,0.1,0,0.2h-0.4c0-0.1-0.2-0.2-0.3-0.2c0,0.5-0.4,0.7-0.5,0.8c-0.2-0.2-0.2-0.4-0.2-0.7 c-0.1,0-0.2,0-0.2-0.1c0-0.2-0.1-0.4-0.2-0.5c0.1,0,0.2-0.3,0.4-0.3c0.2,0,0.1,0,0.2,0v0.3h0.6c0.1-0.4-0.1-0.7,0.2-1 c0.1-0.3,0.1-0.6,0.1-0.8c0-0.1,0.2,0,0.1-0.2v-0.6c-0.3,0-0.4-0.2-0.6-0.4c-0.1-0.1-0.4-0.1-0.4-0.5h-0.5c0,0.3,0.3,0.2,0.3,0.5 c0.1,0.2,0.3,0.4,0.3,0.7c0,0.3-0.5,0.6-0.5,0.6c-0.1-0.4-0.7-0.1-1-0.3v-0.3h-0.4c0.1,0.3-0.1,0.7-0.3,0.7 c-0.1-0.1-0.3-0.4-0.5-0.4c0-0.3,0.1-0.6,0-0.9c-0.1-0.1-0.2-0.3-0.2-0.4c-0.2-0.2-0.4-0.5-0.6-0.6h-0.4c-0.1,0.2-0.2,0.4-0.2,0.6 c0,0.2,0.2,0.5,0.2,0.8c0.2,0.1,0.2,0,0.2,0.2c0,0.2-0.3,0.2-0.3,0.4c-0.3,0.6-0.1,0.6-0.7,0.6c-0.2,0-0.2,0-0.3,0v-0.3 c-0.5,0-0.5-0.3-0.6-0.6c-0.1-0.2-0.4-0.4-0.6-0.6c-0.2,0-0.3,0-0.3-0.1c-0.1-0.1-0.2-0.2-0.3-0.3c-0.2-0.3-0.4-0.9-0.4-1.3h-0.4 c-0.3,0.3-0.8,0.1-1,0.2c0,0.1,0,0.1-0.1,0.2c-0.2,0-0.3,0.2-0.5,0.2c-0.2-0.2-0.4-0.4-0.6-0.5c-0.1,0.2,0,0.3-0.1,0.4 c-0.3,0-0.6,0-1,0c0,0.1-0.1,0.1-0.2,0.2c-0.2,0.2,0,0.9-0.4,1c0,0.2,0,0.4-0.1,0.5c-0.3-0.1-0.2,0.2-0.5,0.2 c-0.2,0-0.2-0.1-0.2-0.2h-0.6c-0.2,0.2-0.4,0.4-0.5,0.6c-0.3,0-0.6,0.2-0.8,0.2c-0.2,0-0.2,0-0.2,0v-0.5c0-0.1,0.1,0,0.2-0.1v-1.4 h-0.5c-0.1,0.3-0.2,0.4-0.4,0.4c0,0.5-0.2,0.9-0.2,1.4h-1.1c-0.1-0.2-0.1-0.2-0.3-0.2c-0.2,0-0.7,0.2-0.9,0.5v1.3h-0.5 c-0.2,0-0.3-0.2-0.4-0.2c-0.1,0-0.1-0.2-0.3-0.2v0.4c0.2,0.1,0.3,0.3,0.3,0.4c0.1,0,0.1,0,0.1,0.2c0,0.2,0,0.2-0.1,0.3 c-0.2-0.1-0.2-0.3-0.3-0.2v0.6c0.2,0.3,0.3,0.2,0.4,0.6c0.2,0.1,0.3,0.2,0.3,0.4c0,0.2,0,0.1,0,0.2h-0.5c-0.2,0-0.2-0.2-0.4-0.2 c-0.1,0,0,0,0-0.2h-0.4c0.1,0.4-0.1,0.8-0.3,0.8c-0.2,0-0.3-0.2-0.4-0.3v-0.9c0.1-0.1,0.1,0,0.2-0.1v-0.4h-0.8 c-0.3,0.3,0,0.5-0.4,0.6c-0.1,0.5-0.1,0.5-0.6,0.5c-0.2,0-0.3-0.2-0.5-0.2c-0.2,0-0.5,0.4-0.7,0.4c-0.2,0-0.2-0.1-0.2-0.2h-1.1 c-0.1-0.1-0.3-0.2-0.3-0.3c0.2-0.1,0.2-0.2,0.2-0.5c0-0.2-0.2-0.6-0.2-1c-0.2-0.1-0.1-0.3-0.3-0.3h-0.4c0,0.2,0,0.2-0.2,0.2 c-0.2,0-0.1,0-0.2,0c0-0.1-0.1-0.3-0.1-0.4c0-0.2,0.1-0.4,0.1-0.6s-0.1-0.4-0.2-0.7c-0.6,0.3-0.3,1.1-0.5,1.4h-0.5 c-0.1-0.1-0.1-0.1-0.1-0.2c-1.2,0-1.3,0-1.4,0c0-0.2,0.1-0.8-0.4-0.9c-0.2,0.2-0.2,0.3-0.4,0.4v0.4c0.1,0,0.1,0,0.1,0.1 c-0.1,0,0,0-0.2,0c-0.3,0-0.3,0-0.5-0.4c-0.2-0.1-0.4-0.2-0.5-0.2c0,0,0-0.2-0.1-0.3c-0.2,0-0.3-0.3-0.5-0.3c0,0.2,0,0.2,0,0.3 h-1.1v-0.5c0.1-0.1,0.1-0.1,0.2-0.1v-1.4c-0.4-0.2-0.2-0.4-0.2-0.6c-0.1,0-0.1-0.1-0.2-0.2h-0.4v0.6c0.2,0.1,0.2,0.1,0.2,0.3 c0,0.2,0,0.2,0,0.2c-0.4-0.1-0.5,0.5-1,0.4v0.6c0.1,0.1,0.4,0.3,0.4,0.6c0,0.2-0.4,0.5-0.4,0.7c0,0.3,0.3,0.2,0.3,0.7 c0,0.2,0,0.3-0.1,0.4h-0.3c0.2,0.4-0.2,0.7-0.4,0.7c-0.2,0-0.3-0.2-0.3-0.3c-0.2-0.1-0.3-0.2-0.5-0.2L35,97.8 c0.1,0.2,0.2,0.4,0.3,0.5c0.2-0.1,0.1,0.3,0.2,0.4c0.5-0.1,0.3,0.2,0.7,0.4c0.6-0.1,0.9,0.7,1.3,0.9c-0.1,0-0.1,0.3-0.3,0.3 c-0.2,0-0.1,0-0.2-0.1v-0.5h-0.6c0,0.1,0,0.2-0.1,0.2c-0.1,0-0.1-0.1-0.1-0.2c-0.3-0.1-0.6-0.2-0.8-0.2c-0.2,0-0.6,0.3-0.8,0.4 v1.6c0.3,0,0.3,0,0.3,0.2c0,0.3-0.5,0.3-0.6,0.4c-0.2,0.3-0.4,0.6-0.5,0.9c-0.2,0.1-0.3,0.4-0.6,0.4v0.4c0.3,0.3,0.6,0.6,0.8,0.8 c-0.1,0-0.1,0-0.2,0c0,0.4-0.1,0.9-0.8,0.7c-0.1,0.2,0,0.4-0.1,0.4c-0.2,0.2-0.3,0.4-0.5,0.5c-0.1,0.3-0.1,0.8-0.8,0.6v1.1 c0.3-0.1,0.8,0,0.8,0.3c0.2,0.1,0.3-0.1,0.3,0.1v0.4c-0.1,0-0.2,0.3-0.4,0.3v1c0.3,0.1,0.2,0.3,0.2,0.5c0,0.2,0,0.3,0,0.4 c-0.1,0.1-0.2,0.1-0.2,0.3c0.1,0,0.1,0,0.2,0.1c0,0.4,0.2,0.8,0.2,1.3h0.6c0.1-0.2,0.2-0.1,0.4-0.1c0.2,0,0.6,0,0.6,0.3 c0,0.4-0.7,0.5-1.2,0.4c-0.2,0.4-0.6,0.9-0.6,1.1c0,0.2,0.2,0.4,0.2,0.6c0,0.2,0,0.3,0,0.5h-0.4c-0.2,0-0.4-0.1-0.5-0.2v-0.2 c0.2-0.1,0.2-0.3,0.5-0.4c-0.4-0.3-0.2-0.4-0.3-0.5c-0.2-0.3-0.8-0.6-0.8-1c-0.1-0.1-0.2-0.1-0.2-0.1c0-0.1,0.1-0.1,0.2-0.1v-0.4 c-0.3-0.2-0.6-0.3-0.6-0.9H30c0,0.2,0,0.3,0,0.4h-0.4v0.8c0.4,0,0.3,0.5,0.4,0.7c0.2,0.1,0.2,0,0.2,0.2c0,0.2-0.4,0.4-0.4,0.6 c0,0.2,0.2,0.4,0.3,0.5c0,0.3,0.2,0.6,0.2,0.7c0,0.4-0.3,1.2-0.6,1.5c-0.7,0-0.9,0-0.9,0c0.1-0.3-0.2-0.5-0.2-0.7 c-0.3-0.2-0.4-0.4-0.6-0.7c-0.2,0-0.3-0.1-0.5-0.1c0.1,0.3,0,1-0.3,1c-0.2,0-0.1,0-0.2,0V116c0.1-0.1,0.2-0.3,0.4-0.3v-1.2 c-0.1,0-0.2,0-0.3-0.1v-1.2h-0.4c0,0.4-0.5,0.4-0.7,0.4c-0.1,0.3-0.1,0.5-0.4,0.5c-0.2,0-0.1,0-0.2,0c-0.1-0.2-0.2-0.3-0.2-0.6H25 c-0.1,0.1-0.1,0.1-0.3,0.1v0.5c0.3,0.2,0.4,0.4,0.4,0.7c0,0.2,0.1,0.2,0,0.3c-0.3,0.1-0.6,0.1-1.1,0.2c0.2,0.3-0.3,0.2-0.4,0.2 c-0.2,0-0.2,0-0.3,0c-0.2-0.2-0.4-0.3-0.5-0.6c-0.3-0.1-0.5-0.1-0.7-0.1v-0.4c0-0.2,0.4-0.8,0.4-1c0-0.2-0.3-0.3-0.3-0.5h-0.4 c-0.2,0.3-0.4,0.3-0.7,0.3c-0.2,0-0.1,0.1-0.2,0c-0.1-0.1-0.2-0.2-0.3-0.3c-0.2-0.1-0.4-0.1-0.5-0.2c-0.4-0.3-0.6-0.4-1.1-0.6 v-0.3c0.3,0,0.2-0.7,0.6-0.8v-0.4h-0.4c-0.1,0.4-0.3,0.5-0.4,0.5c-0.3,0-0.3-0.4-0.6-0.4c-0.2,0-0.3,0-0.4,0.2h-0.8 c-0.1-0.2-0.1-0.2-0.4-0.2c-0.3,0-0.6,0.5-0.8,0.6c-0.2,0-0.5,0.1-0.7,0.2c0,0.3-0.2,0.5-0.2,0.7c0,0.2,0.2,0,0.2,0.2v1.1h-0.3 c0-0.1,0-0.1,0-0.2h-0.6c-0.1,0.2,0.1,0.3,0.1,0.3c-0.4,0.2-0.2,0.3-0.4,0.3c-0.2,0-0.5-0.2-0.5-0.4c0-0.2,0.4-0.6,0.6-0.9 c-0.2-0.1-0.4-0.2-0.6-0.3c-0.1-0.1-0.1-0.2-0.2-0.2c-0.1,0.3-0.4,0.4-0.6,0.4c0.1,0.4-0.5,0.2-0.6,0.2c-0.1,0.4-0.2,0.8-0.3,1.2 H11c-0.2-0.4-0.5-0.2-0.7-0.3v-0.4c0.1-0.1,0.3-0.2,0.2-0.3h-0.4c-0.2,0.3-0.6,0.3-0.9,0.4c0,0.1,0,0.2-0.1,0.2 c-0.2-0.3-0.3-0.2-0.4-0.3v-0.7H8.4v1.3c-0.2,0.1-0.3,0.3-0.5,0.3v0.4c0.2,0,0.2,0.1,0.3,0.2c0.3,0,0.7,0,0.8,0.4 c0.3,0.1,0.4,0.2,0.6,0.3v1.3c0.1,0,0.1,0.1,0.2,0.3c1.2,0,1.2,0.4,1.5,0.4c0.2,0,0.5-0.4,0.7-0.4c0.2,0,0.4,0.2,0.6,0.1 c-0.1,0.4,0.4,0.8,0.6,0.6c0,0.5,0.3,1.1,0.6,1.6c0.2,0,0.6,0,0.8,0c0.6,0.6,1.1,1.2,1.6,1.7c-0.1,0-0.2,0.2-0.4,0.2 c-0.3,0-1.2-1.3-1.4-1.4v0.5c0.3,0.2,0.2,0.2,0.2,0.3c0,0.2,0,0.2,0,0.3c-0.3-0.5-0.8-0.9-1.2-1.2v0.4c0.3,0.2,0.3,0.2,0.3,0.5 c0,0.2,0.1,0.2,0,0.3h-0.4c-0.2,0-0.1-0.1-0.1-0.1c-0.2,0-0.4,0-0.5-0.1c0-0.2-0.2-0.4-0.4-0.4c0-0.1,0,0,0-0.2 c0-0.3,0.5-0.8,0.8-0.9v-0.4h-0.6c-0.3,0.2-0.5,0.8-1,0.8v0.6c0.2,0.2,0.3,0.3,0.4,0.4c0.1,0,0.2,0,0.3,0.1c0.2,0.2,0.5,0.4,1,0.4 c0.2,0.3,0.2,0.3,0.5,0.3c0.3,0.1,0.8-0.2,0.9,0.3h2.1c0.2,0,0.2,0.2,0.3,0.2c0.1,0.2,0.4,0.3,0.5,0.6c0.5,0.1,0.8,0.5,1.4,0.9 c0,0,0.2,0,0.3,0.1c0.1,0.3,0.6,0.4,0.6,0.9c0,0.2,0,0.2-0.1,0.3h-0.8c-0.1-0.1,0-0.1-0.1-0.2H18c0.3,0.3,0.5,0.4,0.6,0.6 c0.2,0,0.3-0.1,0.3,0v0.3c-0.4,0.2-0.8,0.2-0.9,0.6c0.4,0,0.7,0,0.9,0c0.1,0.1,0,0.1,0.1,0.2c0.2,0,0.3,0,0.3,0 c-0.2,0.5,0,0.3,0.2,0.6c-0.1,0-0.2,0.1-0.3,0.3H18v1.3c0.3,0.2,0.1,0.8,0.2,1c0.3,0.5,1.3,0.2,1.6,0.7h0.5c0.2-0.3,0.2-0.7,0.3-1 h0.6c0.1,0.1,0,0.2,0.1,0.4c0.5-0.1,0.3,0.2,0.7,0.4c0.1,0,0.3,0,0.6,0.2c0.2,0.1,0.8-0.1,0.8,0.4c0,0.2,0.1,0.1,0,0.2h-0.7v1.3 c-0.1,0-0.2,0.2-0.3,0.2c-0.1-0.1-0.2-0.2-0.2-0.3c-0.4-0.1-0.9,0.1-1-0.4c-0.2-0.1-0.2-0.2-0.4-0.2h-0.3v0.4 c0.2,0.1,0.3,0.1,0.5,0.2c0.3,0.3,0.6,0.6,0.8,0.8c0.1,0.1,0.1,0.3,0.1,0.4c0.3,0.1,0.7-0.2,1,0.2c0,0.1-0.2,0-0.1,0.2v0.4 c0.5-0.2,0.5,0.3,0.8,0.4c-0.1-0.5,0.6-0.8,0.7-1c0,0,0.1-0.3,0.2-0.4c0.1-0.6-0.1-0.9,0.5-0.9c0.2,0,0.2,0,0.2,0v0.3 c0,0-0.4,0.4-0.4,0.5c0,0.2,0.2,0.3,0.2,0.5c0,0.2-0.2,0.4-0.2,0.6c-0.1,0.1-0.2,0.1-0.2,0.2h0.4c0.2-0.3,0.6-0.1,0.8-0.2 c0.1-0.2,0.1-0.2,0.3-0.3c0-0.2-0.2-0.3,0-0.3h0.5c0,0.1,0.1,0.2,0.2,0.2v-0.7c-0.1,0-0.1,0-0.1-0.2c0-0.2,0-0.1,0.1-0.1 c0.2,0,0.5-0.2,0.7-0.2c0.4,0,0.3-0.1,0.6,0.3c0.2,0,0.4-0.1,0.4,0v0.4c-0.2,0-0.3,0.2-0.6,0.2v0.4c0.2,0.2,0.4,0.4,0.6,0.5 c0,0.5,0.4,0.6,0.9,0.8v0.6c0,0.2-0.2,0.1-0.1,0.2c0.1,0,0.1,0.1,0.2,0.2c0.4-0.2,0.4-0.5,0.6-0.6c0,0.1,0,0.1,0,0.2 c0.6,0.3,0.7,0.2,0.7,0.9c0,0.2,0,0.3,0,0.4h-0.2c-0.3-0.2-0.4-0.5-0.7-0.5c0.1,0.4-0.2,0.5-0.2,0.5c-0.2-0.1-0.4-0.2-0.5-0.2 c-0.2,0-0.6,0.2-0.8,0.2c-0.2,0-0.4-0.1-0.8-0.1c0.2,0.8-0.5,0.8-0.7,1.2c0-0.1,0-0.1,0-0.3c0-0.2,0.2-0.5,0.2-0.7 c0-0.7-0.2-0.5-0.5-1.2c0.2-0.2,0.5-0.4,0.5-0.7c0-0.2-0.2-0.4-0.2-0.6c-0.4,0.3-0.3,0.4-0.7,0.4c-0.2,0-0.3-0.2-0.5-0.2 c-0.2,0-0.2,0-0.2,0c-0.5,0.3,0,0.4-0.7,0.4c-0.1,0-0.3-0.1-0.6-0.2c0,0.3,0,0.5-0.1,0.7c-0.2,0-0.4,0.1-0.6,0.1 c-0.2,0-0.5-0.4-0.9-0.5c-0.2-0.4-0.5-0.7-0.6-1.1c-0.3-0.1-0.6-0.1-0.7-0.1c-0.1-0.4-0.4-1-0.8-1.4v0.9c0.3,0.2,0.2,0.3,0.2,0.4 c0,0.4,0.1,0.3-0.4,0.6c-0.1,0.1-0.2,0.4-0.5,0.4c-0.2,0.2-0.3,0.5-0.5,0.7c0.2,0.2,0.5,0.2,0.6,0.3v0.5h1.3 c0.1,0.1,0.6,0.6,0.6,0.8c0,0.2,0.1,0.2,0,0.3h-0.6c0,0.1,0,0.2-0.2,0.2v1.2c0.4,0.1,0.7,0.2,1.1,0.2c0,0.2,0.3,0.3,0.4,0.5 c0.2-0.3,0.4-0.3,0.4-0.3c0-0.1,0-0.2,0.2-0.2c0.2,0,0.1,0,0.2,0v0.6c0.3,0.1,0.4,0.2,0.4,0.4H24c0-0.5,0.5-0.8,0.7-0.8 c0.5,0,0.5,0.5,0.5,0.8c0.2,0.1,0.2,0.3,0.4,0.3c0.3,0,0.2-0.2,0.3-0.4h0.5c0.1,0.3,0.1,0.5,0.2,0.8h0.4c0-0.2,0.1-0.2,0.1-0.2 v0.3c-0.2,0.1-0.2,0.1-0.2,0.4c0,0.2,0,0.2,0.1,0.3c0.3,0.1,0.3,0.5,0.4,0.8c0.2,0,0.2,0.2,0.3,0.2c0.2,0.1,0.4,0.1,0.5,0.1 c0.1,0.1,0.5,0.3,0.4,0.7h1c0.2-0.4,0.2-0.4,0.5-0.4c0.3,0,0.3-0.1,0.5,0.4h0.4c0.1-0.3,0.1-0.2,0.3-0.2c0.1,0,0.2,0,0.4,0.2 c0.5,0.1,0.7,0.6,0.7,0.7c0,0.2,0.1,0.2,0,0.2h-1.5c0,0.2,0,0.2-0.2,0.2c-0.2,0-0.2-0.1-0.2-0.2h-0.5c0,0.3,0,0.6,0,0.7h-0.5 c-0.1-0.2-0.2-0.2-0.3-0.5h-0.5c-0.1,0.2-0.1,0.2-0.3,0.2c-0.2,0-0.4-0.2-0.6-0.2v0.4c0.4,0.1,0.6,0.3,0.6,0.7 c0,0.2-0.1,0.3-0.2,0.4c0.3,0.3,0.5,0.7,0.8,0.9c0,0.4,0.1,0.9,0.6,0.9v1c0.3,0.1,0.3,0.4,0.4,0.5c0,0.3,0.2,0.6,0.2,0.9 c0.3,0.1,0.3,0.3,0.3,0.4c0,0.2-0.3,0.4-0.4,0.6c0.4,0,0.4,0.2,0.4,0.4c0,0.2,0,0.2,0,0.2H30c-0.1,0.5-0.3,0.8-0.7,0.8 c-0.2,0.3-0.4,0.3-0.6,0.4c-0.1,0.1-0.2,0.2-0.2,0.4c0,0.3,0.5,0.5,0.6,0.5v0.7c0.2,0,0.3,0.2,0.4,0.1c0.1-0.2,0.3-0.1,0.4-0.2 c0.2-0.4,0.5-0.7,0.6-1c0.3,0,0.5-0.2,0.7-0.2c0.2,0,0.2,0,0.4,0v0.5c-0.1,0.1-0.2,0.3-0.3,0.3c-0.2,0-0.2-0.2-0.5-0.2 c0,0.1,0,0.2-0.2,0.2v0.4c0.5,0,0.9,0.2,1.4,0.2c0.3,0.1,0.1,0.7,0.2,0.9c0.1,0.3,0.4,0.2,0.8,0.3v0.2c-0.1,0.1-0.2,0.3-0.4,0.3 v0.4c0.2,0,0.3,0.2,0.5,0.2h1.5c0.1,0.1,0.1,0.2,0.2,0.3v1.5c0,0.2-0.1,0.1-0.1,0.3c0,0.2,0,0.2,0,0.3c0.2,0.1,0.2,0.2,0.3,0.3 c0,0.1,0.2,0.3,0.2,0.5l0,0l0,0l0,0c-0.1,0.1-0.2,0.4-0.2,0.6c0,0.2,0.1,0.4,0.2,0.7c0.6-0.1,0.9,0.1,1,0.6h0.6 c0.1-0.2,0-0.2,0.2-0.2c0.2,0,0.1-0.1,0.2,0c0,0.3,0.2,0.6,0.2,0.9c0.3,0.2,0.6,0.5,1,0.5c0.2,0,0.8-0.2,1.2-0.4 c1.2,0,1.2,0,1.3,0c-0.1,0.4,0.2,0.4,0.3,0.7c0.2,0.1,0.7,0.1,0.8,0.4h0.4c0.1-0.2,0.8-0.6,0.8-0.6c0.1,0,0.1,0,0.1,0l0,0 c0,0,0.1,0,0,0c0,0.2,0.7,0.3,0.8,0.4c0.3,0.3,0.4,0.7,0.7,1.1h1.4c0.2-0.3,0.4-0.3,0.4-0.3c0.2-0.2,0.2-0.4,0.4-0.4 c0.2,0,0.1-0.1,0.1,0v0.7h1.3c-0.1-0.3,0.3-1,0.6-1c0.1,0,0.1,0,0.3,0.2c0.2,0.1,0.6-0.2,0.8,0.3h0.4c0-0.2,0.2-0.3,0.2-0.5 c-0.1-0.1-0.5-0.5-0.5-0.7c0-0.2,0.1-0.3,0.2-0.4c0.1-0.2,0.3-0.4,0.6-0.5c0,0,0-0.2,0.1-0.2c0,0.2,0.1,0.2,0.3,0.3 c0,0.4,0.1,0.7,0.3,1.1c0.2-0.2,0.2,0.4,0.2,0.4h0.6c0-0.2,0.2-0.3,0.2-0.6c0-0.2-0.2-0.3-0.2-0.4c0.1,0,0.2-0.2,0.3-0.2 c0,0.1,0.2,0.2,0.2,0.4h0.7c0.1-0.3,0.2-0.4,0.4-0.4V162c-0.3-0.1-0.4-0.3-0.7-0.3v-0.2c0.4-0.1,0.7-0.3,0.9-0.3 c0.3,0,0.4,0.1,0.4,0.5c0,0.2-0.1,0.4-0.2,0.6c-0.2,0.2-0.3,0.4-0.6,0.5c0,0.1,0,0.3-0.1,0.3c-0.2,0.2-0.3,0.4-0.6,0.5 c0,0.2,0,0.4,0,0.5c-0.1,0.3-0.3,0.5-0.4,0.7c0.2,0,0.3,0,0.3,0.2h1.2c0-0.1,0.2-0.2,0.3-0.2c0-0.2-0.2-0.3,0-0.3h0.3 c0.2,0.3,0.2,0,0.5,0.4h0.4c0.3-0.3,0.5-0.6,0.8-0.9c0.1-0.4,0.6-1,0.8-1c0.2,0,0.1,0,0.2,0.1v0.5c-0.2,0.1-0.3,0.4-0.6,0.6v0.5 c0.3,0,0.5,0.3,0.7,0.3s0.9-0.5,1-0.6c0.2,0,0.5,0,0.6,0c0-0.1,0.1-0.1,0.2-0.2v-1c0.2-0.1,0.5-0.2,1-0.3 c-0.4-0.3-0.7-0.6-0.7-0.8c0-0.2,0.1-0.2,0.2-0.2c0.2-0.6,0.1-0.5,0.6-0.5c0.2,0,0.3,0,0.3,0c0.1,0.2,0.4,0.4,0.5,0.6v1.4h1 c0-0.2,0.1-0.2,0.2-0.2v-0.4c-0.1,0-0.2,0-0.2-0.1c0.4-0.1,0.1-0.7,0.3-1c0-0.2,0.1-0.3,0.3-0.3s0.1,0,0.2,0v0.8 c0.3,0.1,0.4,0.2,0.4,0.3c0,0.2-0.1,0-0.1,0.3v1.2c0.2,0.1,0.1,0.1,0.1,0.3c0,0.2-0.1,0.3-0.1,0.5c0.1,0.1,0.1,0.1,0.2,0.3h1.4 c0.2,0,0,0.1,0,0.1c0.2,0,0.4,0,0.6,0c0,0.1,0,0.1,0,0.2c0.4,0.1,1.1-0.3,1.2,0.4c0.3,0.1,0.5,0.1,0.7,0.1c0.1,0.1,0,0.1,0.1,0.2 c0.2,0.1,0.5,0.2,0.6,0.2c0.2,0,0.1-0.2,0.3-0.2c0.2,0,0.2,0.2,0.4,0.2c0.4,0,0.3-0.3,0.7-0.4c0.1,0.2,0.3,0.3,0.4,0.6 c0.4,0,0.9,0.2,1.1,0.2c0.2,0,0.7-0.2,0.9-0.2c0.2,0,0.5,0.2,0.7,0.2c0,0,0,0,0.1,0c4,4.4,7.8,9.3,9.7,13.4 c3.7,8,2.3,8.7,0.3,21.7c-1.6,10.7,4.8,15,4.8,15h18.2c0,0-8.2-4-9.7-10.3c-2.4-10-0.3-18.2,6.7-28.2c3.9-5.7,5.7-10.7,6.4-14.5 l2.1-0.2c0-0.2,0.1-0.3,0.4-0.5c0-0.1,0-0.2,0.1-0.3c0.2-0.1,0.3-0.3,0.6-0.5c-0.2-0.8,0.3-1.5,0.7-1.8c0.1-0.2,0.3-0.5,0.4-0.5 c0-0.2-0.2-0.3,0-0.3h0.5c0.1,0.2,0.3,0.4,0.4,0.4c0.3,0,0.6-0.4,1-0.4v-1.2c-0.1,0-0.1-0.1-0.2-0.1c0.1,0,0.2-0.1,0.2-0.2 c0.1,0,0.3,0.2,0.4,0.2c0,0.2,0.2,0.3,0.2,0.6c0.3,0.1,0.3,0.1,0.3,0.5c0,0.2-0.2,0.2-0.2,0.4c0,0.1,0.7,0.8,0.9,0.8h1.3 c0,0.3,0.1,0.3,0.3,0.3c0.2,0,0.8-0.4,0.9-0.4c0.2,0,0.2,0.1,0.4,0.1h1.1c0.2-0.3,0.6-0.7,0.9-0.7c0.2,0,0.3-0.1,0.5,0.3h0.4v-0.6 c-0.2-0.1-0.1-0.2-0.2-0.4c-0.1-0.1-0.3-0.3-0.3-0.6c0-0.2,0-0.1,0-0.2c0.3,0.1,0.5,0.4,0.5,0.7c0.3,0.2,0.4,0.2,0.4,0.4 c0.3,0.1,0.6,0.1,0.8,0.1c0.1,0.1,0.1,0.2,0.3,0.2v-0.9c-0.2,0-0.2,0-0.2-0.2c0-0.2,0-0.1,0-0.2h0.3c0.3,0.4,0.7,0.8,1.1,1.2h0.6 v-0.5c-0.3-0.2-0.4-0.4-0.5-0.7c0.3-0.2,0.6-0.2,0.7-0.3c-0.2-0.3,0.3-0.1,0.4-0.1c0.5,0,0.4-0.1,0.5,0.7c0.4,0.2,0.5,0.4,0.6,1.1 h0.4c0-0.1,0.1-0.1,0.2-0.2c0-0.2,0-0.3,0-0.4c0.2,0,0.4-0.2,0.7-0.2c0-0.2,0.2-0.2,0.2-0.2c0.1-0.3,0.6-0.7,0.6-0.7 c0.2,0,0.1,0,0.1,0c-0.2,0.3-0.2,0.7-0.4,0.9c-0.1,0.1-0.2,0.1-0.3,0.3c-0.2,0.2-0.4,0.3-0.7,0.4v0.7h0.7c0.2-0.2,0.4-0.4,0.5-0.6 c0.1-0.5,0.3-0.5,0.4-0.8h0.7c0,0.2,0.4,0.3,0.6,0.4c0.3,0.1,0.2,0.5,0.6,0.5c0.2,0,0.4-0.4,0.6-0.5v-0.4 c-0.5,0.2-0.9-0.3-0.9-0.6c0-0.2,0-0.2,0-0.3h0.8c0.1,0.1,0.2,0.2,0.3,0.2c0,0.1,0,0.4,0,0.6h0.7c0.2-0.5,0.2-0.4,0.5-0.4 c0.7,0,1.6,1.3,2,1.6c0.2-0.5,0.4-0.4,0.4-0.8c0-0.6-0.5-0.5-1-1.1V157c-0.1-0.3-0.5-0.4-0.7-0.7c-0.2,0-0.3,0.2-0.3,0v-0.4 c0.2-0.1,0.5-0.4,0.4-0.7c0.1-0.1,0.2-0.2,0.4-0.2c0.2,0,0.9,0.6,1,0.8c0.1,0,0.3,0,0.3,0c0.3,0.1,0.4,0.4,0.7,0.5v-0.4 c-0.1,0-0.1,0-0.1-0.2c0-0.2,0-0.1,0-0.2h0.3c0.1,0.4,0.6,0.3,0.9,0.4c0.1,0.1,0.2,0.2,0.3,0.2c0-0.2,0.2-0.3,0.2-0.4 c0.3,0.1,0.7,0.3,0.8,0.7c0.2,0.2,0.3,0.2,0.4,0.4h0.4v-0.7c-0.5-0.1-0.1-0.7-0.2-1c-0.1-0.1-0.1-0.2-0.2-0.4 c-0.1-0.2-0.2-0.2-0.2-0.3c0-0.2,0-0.2,0-0.3h0.5c0,0.1,0.2,0.2,0.2,0.4v1.2c0.3,0.2,0.3,0.4,0.3,0.4c0.2,0.1,0.3,0.3,0.4,0.4h1.3 c0,0.2,0.3,0.2,0.5,0.2c0.4,0,0.4-0.3,1-0.4c0.1-0.1,0.1-0.2,0.1-0.2c0,0.2,0.5,0.4,0.8,0.4c0.2,0,0.4-0.1,0.6-0.1 c0.2,0,0.3,0.1,0.4,0.1c0.2-0.2,0.2-0.1,0.3-0.1c0.2,0,0.4,0.1,0.6,0.1c0.6,0,0.4-0.5,0.5-0.9h0.2c0.2,0,0,0.1,0.2,0.1h0.7 c-0.3-0.7,0,0,0-1.7c0.3-0.2,0.2-0.3,0.3-0.4h0.9c0.1,0.1,0.2,0.3,0.3,0.5c0.3-0.1,0.2,0.3,0.2,0.4c0,0.2,0,0.2,0,0.3 c-0.2,0.2-0.4,0.5-0.6,0.7h0.6c0.1-0.4,0.5-0.1,0.8-0.2v-0.5c-0.3-0.1-0.2-0.1-0.2-0.3c0-0.1,0-0.1,0.2-0.3 c0.3-0.4,0.2-0.5,0.5-0.5c0.2,0,0.2,0,0.2,0v0.7h0.4c0.1-0.2,0.2-0.1,0.4-0.2c0.2-0.2,0.4-0.3,0.6-0.3c0.1-0.2-0.1-0.4,0.3-0.7 c0-0.3,0.1-0.6,0.2-0.9c0.1-0.3,0.2-0.2,0.2-0.4c0-0.4-0.8-0.8-0.8-1.2c0-0.3-0.1-0.3,0.5-0.5v-0.4c-0.3-0.2-0.3-0.3-0.3-0.4 c-0.2-0.1-0.2,0-0.2-0.2C152.5,149.4,152.5,149.5,152.5,149.4z M90.2,161.3c0,0.3-0.4,0.3-0.5,0.5c-0.2,0.4-0.6,1.1-0.6,1.3 c0,0.2-0.1,0.2,0.3,0.4v2c-0.3,0.2-0.5,0.5-0.5,0.6v1.3c0,0.3,0.2-0.1,0.2,0.2v4.9c-0.2,0.1-0.2,0.1-0.2,0.3h-0.7 c0-0.5-0.2-0.9-0.3-1.3c-0.1-0.1-0.1-0.1-0.2-0.1c-0.2-0.6,0-1-0.6-1.3c-0.1-0.4-0.1-1-0.5-1.1c-0.3-1.1-0.9-1.8-1.6-2.5 c-0.2-0.6-1-1.1-1.4-1.6c-0.2-0.4-0.3-0.8-0.8-1.2c-0.1-0.6-0.8-1-1.1-1.4c0.1-0.4-0.2-0.6-0.5-0.7c-0.4-1.1-0.6-1.7-1.4-2.5 c-0.2-0.8-0.5-0.9-0.8-1.6v-1.6c0.2,0,0.2-0.1,0.3-0.3h0.9c0.1,0.5,1.1,0.5,1.2,0.9H84c0.1-0.3,1.6-1.8,2-1.8 c0.3,0,0.4,0.2,0.4,0.3c0.1,0,0.3,0,0.4,0.1c0.2,0.4,0.7,0.5,0.9,0.8h0.7c0-0.1,0,0,0-0.3c0-0.3-0.5-1.3-0.9-1.9h1.3 c0.3,0.4,0.3,0.4,0.8,0.6v1.8c0.4,0.3,0.2,0.3,0.6,0.6V161.3z M105.3,155.2c-0.2,0-0.2,0-0.3,0.1c0,0.4-0.3,1.1-0.3,1.4 c0,0.2,0,0.2,0.2,0.4v1.8c0,0.3-0.1,0.1-0.2,0.2c0,0.3,0,0.6,0,0.8c-0.4,0.3-0.3,0.8-0.5,1.2c-0.4,0.4-0.7,1.2-1,1.4 c0,0.2,0,0.4-0.1,0.6c-0.3,0.3-0.4,0.8-0.7,1.1c-0.9,1-2.2,1.8-3,2.9c-0.3,0.3-0.2,0.8-0.3,1.4c-0.3,0.2-0.5,0.5-0.7,0.6 c0,0.3,0,0.7-0.1,1.1c-0.5,0.5-0.9,0.8-1.3,1.4h-0.5v-1c0.2,0,0.2,0,0.2-0.1c0.1-0.4,0.3-1.2,0.5-1.3c0-0.5,0.2-1,0.3-1.6 c0.1-0.1,0.2,0,0.2-0.1c0-0.8,0.3-1.6,0.3-2.5c0.3-0.2,0.3-0.2,0.3-0.4c0-0.1,0.1-0.1-0.3-0.3v-2.3c0,0,0.2,0,0.3-0.5 c0.3-0.2,0.5-0.6,0.7-0.9c0-0.2,0-0.4,0.1-0.6c0,0,0.2,0.2,0.2-0.1v-3.6c0.3-0.1,0.5-0.3,0.7-0.3c0.1-0.2,0.4-0.5,0.6-0.6v-3h0.6 v-0.2c0.2,0,0.5,0.1,0.7,0.2c0.1,0.2,0.3,0.3,0.3,0.5c0.1,0,0.2,0,0.2-0.2h1.1c0.1,0.2-0.2,0.2-0.3,0.3v0.9 c0.2,0.1,0.3,0.1,0.5,0.1c0.1,0,0.4,0.1,0.6-0.3h0.5c0,0.3,0.2,0.4,0.5,0.5V155.2z"/>
    </g>
    <g>
      <path class="st1" d="M191.2,196.5c0,2.9-0.5,5.7-1.5,8.2c-1,2.5-2.3,4.7-4.1,6.5c-1.8,1.8-3.9,3.3-6.4,4.3c-2.5,1-5.3,1.5-8.3,1.5 c-3,0-5.8-0.5-8.3-1.5c-2.5-1-4.6-2.5-6.4-4.3c-1.8-1.8-3.2-4-4.2-6.5c-1-2.5-1.5-5.2-1.5-8.2s0.5-5.7,1.5-8.2 c1-2.5,2.4-4.7,4.2-6.5c1.8-1.8,3.9-3.3,6.4-4.3c2.5-1,5.3-1.5,8.3-1.5c2,0,4,0.2,5.8,0.7c1.8,0.5,3.4,1.1,4.9,2 c1.5,0.9,2.8,1.9,4,3.1c1.2,1.2,2.2,2.6,3,4.1c0.8,1.5,1.5,3.2,1.9,4.9C191,192.6,191.2,194.5,191.2,196.5z M183.5,196.5 c0-2.2-0.3-4.2-0.9-5.9c-0.6-1.8-1.4-3.2-2.5-4.5c-1.1-1.2-2.4-2.2-4-2.8c-1.6-0.6-3.3-1-5.3-1c-2,0-3.7,0.3-5.3,1 c-1.6,0.6-2.9,1.6-4,2.8c-1.1,1.2-2,2.7-2.5,4.5c-0.6,1.8-0.9,3.7-0.9,5.9c0,2.2,0.3,4.2,0.9,5.9c0.6,1.8,1.4,3.2,2.5,4.4 c1.1,1.2,2.4,2.1,4,2.8c1.6,0.6,3.3,1,5.3,1c2,0,3.7-0.3,5.3-1c1.6-0.6,2.9-1.6,4-2.8c1.1-1.2,1.9-2.7,2.5-4.4 C183.2,200.6,183.5,198.7,183.5,196.5z"/>
      <path class="st1" d="M221.3,210.4v6.2h-23.5v-40.2h7.5v34H221.3z"/>
      <path class="st1" d="M234.2,216.6h-7.5v-40.2h7.5V216.6z"/>
      <path class="st1" d="M277.6,176.4l-16.2,40.2h-6.8l-16.2-40.2h6c0.6,0,1.2,0.2,1.6,0.5c0.4,0.3,0.7,0.7,0.9,1.2l9.5,24.5 c0.3,0.8,0.6,1.7,0.9,2.6c0.3,1,0.6,2,0.8,3c0.2-1,0.5-2,0.7-3c0.3-1,0.5-1.8,0.9-2.6l9.4-24.5c0.1-0.4,0.4-0.8,0.9-1.2 c0.4-0.4,1-0.5,1.6-0.5H277.6z"/>
      <path class="st1" d="M318.8,196.5c0,2.9-0.5,5.7-1.5,8.2c-1,2.5-2.3,4.7-4.1,6.5c-1.8,1.8-3.9,3.3-6.4,4.3c-2.5,1-5.3,1.5-8.3,1.5 c-3,0-5.8-0.5-8.3-1.5c-2.5-1-4.6-2.5-6.4-4.3c-1.8-1.8-3.2-4-4.2-6.5c-1-2.5-1.5-5.2-1.5-8.2s0.5-5.7,1.5-8.2 c1-2.5,2.4-4.7,4.2-6.5c1.8-1.8,3.9-3.3,6.4-4.3c2.5-1,5.3-1.5,8.3-1.5c2,0,4,0.2,5.8,0.7c1.8,0.5,3.4,1.1,4.9,2 c1.5,0.9,2.8,1.9,4,3.1c1.2,1.2,2.2,2.6,3,4.1c0.8,1.5,1.5,3.2,1.9,4.9C318.6,192.6,318.8,194.5,318.8,196.5z M311.1,196.5 c0-2.2-0.3-4.2-0.9-5.9c-0.6-1.8-1.4-3.2-2.5-4.5c-1.1-1.2-2.4-2.2-4-2.8c-1.6-0.6-3.3-1-5.3-1s-3.7,0.3-5.3,1 c-1.6,0.6-2.9,1.6-4,2.8c-1.1,1.2-2,2.7-2.5,4.5c-0.6,1.8-0.9,3.7-0.9,5.9c0,2.2,0.3,4.2,0.9,5.9c0.6,1.8,1.4,3.2,2.5,4.4 c1.1,1.2,2.4,2.1,4,2.8c1.6,0.6,3.3,1,5.3,1s3.7-0.3,5.3-1c1.6-0.6,2.9-1.6,4-2.8c1.1-1.2,1.9-2.7,2.5-4.4 C310.8,200.6,311.1,198.7,311.1,196.5z"/>
      <g>
        <path class="st0" d="M355.2,210.8c-0.8,0.7-1.7,1.4-2.5,2c-0.8,0.6-1.7,1.1-2.7,1.5c-1,0.4-2.1,0.7-3.2,0.9 c-1.2,0.2-2.5,0.3-4,0.3c-2.3,0-4.6-0.4-6.6-1.3c-2-0.8-3.8-2.1-5.2-3.6c-1.5-1.6-2.6-3.5-3.5-5.8c-0.8-2.3-1.2-4.9-1.2-7.8 c0-2.8,0.4-5.4,1.2-7.7c0.8-2.3,2-4.2,3.5-5.8c1.5-1.6,3.3-2.8,5.4-3.7c2.1-0.9,4.4-1.3,6.9-1.3c1.3,0,2.4,0.1,3.5,0.3 c1,0.2,2,0.5,2.8,0.8c0.8,0.3,1.5,0.6,2.1,1c0.6,0.4,1.1,0.7,1.6,1c0.4,0.3,0.8,0.6,1,0.8c0.3,0.2,0.5,0.4,0.7,0.4 c0.4,0,0.6-0.2,0.6-0.3l0.5-0.8l-0.2-0.1c-1.8-1.5-3.7-2.7-5.7-3.5c-2-0.8-4.4-1.2-7-1.2c-2.8,0-5.4,0.5-7.7,1.5 c-2.3,1-4.4,2.4-6,4.1c-1.7,1.8-3,3.9-3.9,6.4c-0.9,2.5-1.4,5.2-1.4,8.2c0,3.1,0.5,5.9,1.4,8.4c0.9,2.5,2.2,4.6,3.8,6.4 c1.6,1.8,3.6,3.1,5.9,4.1s4.7,1.4,7.4,1.4c1.6,0,3.1-0.1,4.5-0.4c1.3-0.3,2.6-0.7,3.8-1.1c1.1-0.5,2.2-1.1,3.2-1.8 c0.9-0.7,1.8-1.4,2.7-2.3l0.2-0.2l-0.8-0.8C355.7,210.4,355.5,210.5,355.2,210.8z"/>
        <path class="st0" d="M393.4,182.3c-1.6-1.7-3.6-3.1-5.9-4.1c-2.3-0.9-4.8-1.4-7.5-1.4c-2.7,0-5.2,0.5-7.5,1.4 c-2.3,1-4.2,2.3-5.9,4.1c-1.6,1.7-2.9,3.9-3.8,6.4c-0.9,2.5-1.4,5.3-1.4,8.3c0,3.1,0.5,5.9,1.4,8.4c0.9,2.5,2.2,4.6,3.8,6.4 c1.6,1.8,3.6,3.1,5.9,4c2.3,0.9,4.8,1.4,7.5,1.4c2.7,0,5.3-0.5,7.5-1.4c2.3-0.9,4.2-2.3,5.9-4c1.6-1.8,2.9-3.9,3.8-6.4 c0.9-2.5,1.3-5.3,1.3-8.4c0-3.1-0.5-5.9-1.3-8.4C396.3,186.2,395,184,393.4,182.3z M380,215.4c-2.4,0-4.6-0.4-6.7-1.3 c-2-0.8-3.8-2.1-5.2-3.6c-1.4-1.6-2.6-3.5-3.4-5.8c-0.8-2.3-1.2-4.9-1.2-7.7s0.4-5.5,1.2-7.7c0.8-2.3,2-4.2,3.4-5.8 c1.4-1.6,3.2-2.8,5.2-3.6c2-0.8,4.2-1.3,6.7-1.3c2.4,0,4.7,0.4,6.7,1.3c2,0.8,3.8,2.1,5.2,3.6c1.4,1.6,2.6,3.5,3.4,5.8 c0.8,2.3,1.2,4.9,1.2,7.7s-0.4,5.5-1.2,7.7c-0.8,2.3-1.9,4.2-3.4,5.8c-1.4,1.6-3.2,2.8-5.2,3.6C384.7,215,382.4,215.4,380,215.4z "/>
        <path class="st0" d="M435.9,213c0,0.1,0,0.1,0,0.2l-26.2-35.5c-0.1-0.2-0.3-0.3-0.4-0.4c-0.1-0.1-0.3-0.1-0.5-0.1h-0.9v39.6h1.8 V181c0-0.1,0-0.1,0-0.2l26.3,35.6c0.2,0.3,0.5,0.4,0.8,0.4h0.9v-39.6h-1.8V213z"/>
        <path class="st0" d="M466.8,198.5c-1-0.7-2.1-1.3-3.3-1.8c-1.2-0.5-2.4-0.9-3.7-1.3c-1.2-0.4-2.5-0.8-3.7-1.3 c-1.2-0.4-2.2-1-3.2-1.6c-0.9-0.6-1.7-1.4-2.2-2.3c-0.5-0.9-0.8-2.1-0.8-3.4c0-1.1,0.2-2.1,0.6-3.1s1-1.8,1.8-2.6 c0.8-0.8,1.7-1.4,2.9-1.8c1.1-0.4,2.5-0.7,4-0.7c1.5,0,2.7,0.2,3.7,0.5c1,0.4,1.8,0.7,2.4,1.2c0.6,0.4,1.1,0.8,1.5,1.2 c0.4,0.4,0.7,0.6,1,0.6c0.3,0,0.5-0.1,0.7-0.4l0.4-0.8l-0.1-0.1c-1.3-1.4-2.8-2.4-4.3-3c-1.5-0.6-3.3-1-5.3-1 c-1.8,0-3.4,0.3-4.7,0.8c-1.4,0.5-2.5,1.3-3.5,2.2c-0.9,0.9-1.7,2-2.2,3.2c-0.5,1.2-0.7,2.5-0.7,3.8c0,1.7,0.3,3.1,0.9,4.2 c0.6,1.1,1.4,2.1,2.3,2.8c0.9,0.7,2.1,1.4,3.3,1.8c1.2,0.5,2.5,0.9,3.7,1.3c1.2,0.4,2.5,0.8,3.7,1.2c1.2,0.4,2.2,1,3.2,1.6 c0.9,0.6,1.6,1.4,2.2,2.3c0.6,0.9,0.8,2.1,0.8,3.5c0,1.4-0.2,2.6-0.7,3.8c-0.5,1.2-1.2,2.2-2,3.1c-0.9,0.9-2,1.6-3.3,2.1 c-1.3,0.5-2.8,0.8-4.4,0.8c-1.2,0-2.2-0.1-3.1-0.3c-0.9-0.2-1.7-0.5-2.4-0.8c-0.7-0.3-1.3-0.7-1.8-1.1c-0.5-0.4-0.9-0.8-1.3-1.1 c-0.4-0.3-0.7-0.6-0.9-0.9c-0.6-0.6-0.9-0.5-1.1-0.3c-0.1,0.1-0.2,0.1-0.3,0.3l-0.5,0.7l0.1,0.1c0.7,0.8,1.4,1.5,2.2,2.2 c0.8,0.6,1.6,1.2,2.5,1.6c0.9,0.4,1.9,0.8,3,1c1.1,0.2,2.3,0.4,3.6,0.4c1.9,0,3.7-0.3,5.2-0.9c1.5-0.6,2.9-1.5,3.9-2.5 c1.1-1.1,1.9-2.3,2.4-3.8c0.6-1.4,0.8-3,0.8-4.6c0-1.6-0.3-3-0.9-4.1C468.6,200.2,467.8,199.3,466.8,198.5z"/>
        <path class="st0" d="M505.9,201.9c0,1.9-0.3,3.7-0.9,5.3c-0.6,1.6-1.4,3.1-2.5,4.3c-1.1,1.2-2.4,2.2-4,2.9s-3.3,1.1-5.3,1.1 s-3.8-0.4-5.3-1.1c-1.6-0.7-2.9-1.7-4-2.9c-1.1-1.2-1.9-2.7-2.5-4.3c-0.6-1.7-0.9-3.5-0.9-5.3v-24.6h-2v24.6c0,2.1,0.3,4.2,1,6 c0.7,1.9,1.7,3.5,2.9,4.9c1.3,1.4,2.8,2.5,4.6,3.3c1.8,0.8,3.9,1.2,6.1,1.2s4.3-0.4,6.1-1.2c1.8-0.8,3.3-1.9,4.6-3.3 c1.3-1.4,2.2-3,2.9-4.9c0.7-1.9,1-3.9,1-6v-24.6h-2V201.9z"/>
        <polygon class="st0" points="521.4,177.2 519.4,177.2 519.4,216.8 540.7,216.8 540.7,215 521.4,215 &#9;&#9;&#9;"/>
        <polygon class="st0" points="536.2,179 550.6,179 550.6,216.8 552.6,216.8 552.6,179 566.9,179 566.9,177.2 536.2,177.2 &#9;&#9;&#9;"/>
        <rect x="573.5" y="177.2" class="st0" width="2" height="39.6"/>
        <path class="st0" d="M615.4,213c0,0.1,0,0.1,0,0.2l-26.2-35.5c-0.1-0.2-0.3-0.3-0.4-0.4c-0.1-0.1-0.3-0.1-0.5-0.1h-0.9v39.6h1.8 V181c0-0.1,0-0.1,0-0.2l26.3,35.6c0.2,0.3,0.5,0.4,0.8,0.4h0.9v-39.6h-1.8V213z"/>
        <path class="st0" d="M649.9,199.1v1c0,0.2,0.1,0.3,0.2,0.5c0.1,0.1,0.3,0.2,0.5,0.2h8v11.1c-0.9,0.5-1.8,1-2.7,1.5 c-0.9,0.4-1.9,0.8-2.8,1.1c-1,0.3-2,0.6-3.1,0.7c-1.1,0.2-2.3,0.2-3.5,0.2c-2.8,0-5.3-0.4-7.5-1.3c-2.2-0.8-4.1-2.1-5.6-3.7 c-1.5-1.6-2.7-3.5-3.5-5.8c-0.8-2.3-1.2-4.9-1.2-7.7c0-2.9,0.4-5.5,1.2-7.7c0.8-2.3,2-4.2,3.5-5.8c1.5-1.6,3.4-2.8,5.5-3.6 c2.2-0.8,4.6-1.3,7.3-1.3c2.1,0,3.9,0.2,5.3,0.6c1.4,0.4,2.7,0.9,3.6,1.3c0.9,0.5,1.6,0.9,2.1,1.3c0.7,0.6,1,0.7,1.1,0.8 c0.4,0.1,0.7,0,0.9-0.3l0.5-0.8l-0.2-0.1c-0.9-0.8-1.8-1.4-2.7-2c-0.9-0.6-2-1.1-3-1.5c-1.1-0.4-2.2-0.7-3.5-0.9 c-1.2-0.2-2.6-0.3-4.1-0.3c-3,0-5.7,0.5-8.2,1.4c-2.4,0.9-4.5,2.3-6.2,4.1c-1.7,1.8-3,3.9-3.9,6.4c-0.9,2.5-1.4,5.3-1.4,8.4 c0,3.1,0.5,5.9,1.4,8.4c0.9,2.5,2.3,4.6,4,6.4c1.7,1.7,3.9,3.1,6.3,4.1c2.5,0.9,5.3,1.4,8.3,1.4c2.8,0,5.4-0.4,7.6-1.2 c2.2-0.8,4.3-1.8,6.3-3.2l0.1-0.1v-13.7H649.9z"/>
      </g>
    </g>
  </g>
</svg>