<?xml version="1.0" encoding="utf-8"?>
<svg viewBox="7.9 79.3 146 137.5" xmlns="http://www.w3.org/2000/svg">
  <defs>
    <style type="text/css">
	.st0{fill:#7F8C34;}
	.st1{fill:#585857;}
</style>
  </defs>
  <g>
    <path class="st0" d="M152.5,149.4h0.5c0,0.1,0.2,0.2,0.3,0.4h0.4v-0.4c-0.3-0.2-0.6-0.5-0.8-0.8c-0.2,0-0.3,0-0.3-0.1 c-0.3-0.4-0.6-0.1-0.6-0.7c0-0.2,0-0.3,0-0.3c0.3-0.2,0.5-0.5,0.8-0.7v-0.4c-0.3-0.2-0.6-0.5-0.8-0.8c-0.4,0-0.8,0-1.2-0.4 c-0.4,0-0.7-0.1-0.8-0.4H149c0,0.5-0.3,0.6-0.6,0.8v-0.3c0-0.1,0.1,0,0.2-0.1v-0.4c-0.5-0.3-0.8-0.8-1.3-1.2 c0.1,0.3-0.1,0.7-0.3,0.7c-0.3,0-0.6-0.4-0.7-0.5c0.2-0.1,0.4-0.2,0.6-0.4v-0.6c-0.2-0.1-0.4,0.1-0.7-0.3c-0.3,0-0.9,0.2-0.9-0.3 c0-0.2,0.2-0.3,0.2-0.4h1.1c0,0.1,0,0.1,0,0.2h0.4c0-0.1,0-0.3-0.1-0.3c-0.2-0.2-0.5-0.3-0.7-0.4c0-0.4-0.2-0.8-0.2-1 c0-0.2,0.2-0.3,0.2-0.4c0.2,0.1,0.3,0.2,0.4,0.6c0.2-0.1,0.3-0.2,0.4-0.2c-0.2-0.5-0.6-0.8-0.6-1c0-0.2,0-0.1,0-0.2 c0.5,0,0.7-0.5,1-0.8c-0.4-0.1-0.7-0.1-1-0.1c-0.1-0.1-0.3,0-0.3-0.2V137c-0.2-0.1-0.2-0.2-0.2-0.4c-0.2,0.1-0.2-0.3-0.2-0.4 c-0.3,0.2-0.4,0.3-0.5,0.4c-0.1,0-0.2,0-0.5,0.1c-0.1,0.4-0.5,0.2-0.6,0.4c-0.2,0.2-0.2,0.4-0.4,0.4c-0.2,0-0.1,0-0.2,0v-0.4 c0.1-0.1,0.1-0.1,0.2-0.1c0-0.4,0.1-0.8,0.6-1v-1.3c-0.3-0.2-0.3-0.3-0.3-0.4c0-0.2,0-0.2,0.1-0.4c0.3,0,0.4-0.2,0.7-0.2 c-0.3-0.2-0.7-0.2-0.8-0.1v-0.8c-0.2,0.1-0.4,0.3-0.6,0.4c0,0.2,0,0.4-0.1,0.5h-0.8c0-0.2-0.2-0.2-0.3-0.3 c0.3-0.1,0.3-0.3,0.2-0.5c0.6,0,1-0.7,1.3-1.1c-0.2-0.2-0.4-0.5-0.6-0.5h-1c0,0.2,0,0.3,0,0.4l-0.3-0.1c0-0.1,0-0.1,0-0.1 c0.2-0.2,0-0.3,0.4-0.6v-0.4c-0.2,0-0.2-0.1-0.3-0.2c-0.3,0-0.5,0-0.7-0.1v-0.2c0.1,0,0.1,0,0.2-0.1c0.1-0.4,0.3-0.6,0.5-0.7 c0.2,0,0.4-0.2,0.7-0.2c0.4-0.3,0.2-0.6,0.8-0.6c0.2,0,0.3,0.1,0.6,0.2v-1.4c0.1-0.1,0.1,0,0.3-0.1v-1c0-0.2,0.1-0.1,0.1-0.1 c0-0.2,0-0.3,0-0.4c0.2-0.1,0.3-0.4,0.6-0.5v-0.4c-0.1,0-0.2,0-0.2,0c0-0.2-0.2-0.4-0.2-0.6c0-0.3,0-0.3,0.2-0.5 c0.1,0.5,0.6,0.3,1,0.5v0.4c-0.2,0.1-0.4,0.5-0.7,0.4v0.4c0.2,0,0.2,0.1,0.2,0.2h2.4c0.2-0.4,0.3-0.2,0.4-0.2 c0.3-0.3,0.5-0.4,0.8-0.6c0.1-0.1,0.1-0.2,0.2-0.3c0-0.2,0-0.5,0.1-0.7c0.4-0.1,0.2-0.2,0.5-0.3c0.1-0.3,0.2-0.5,0.2-0.7 c0.2,0,0.5-0.1,0.7-0.1c0.2,0,0.2-0.1,0.2,0v0.4c-0.3,0.2-0.3,0.5-1,0.4c0,0.3,0.3,0.5,0.6,0.5c0.2,0,0.4-0.1,0.7-0.2 c0.1-0.2,0.2-0.4,0.3-0.4c0.2,0,0.4,0.3,0.4,0.4h0.4c0-0.8,0.7-0.4,0.8-1c-0.4-0.2-0.6-0.4-0.5-0.8h-0.5c0,0.1,0,0.2-0.1,0.2 c-0.2-0.2-0.5-0.4-0.8-0.4c-0.2,0-0.4,0.2-0.6,0.2c-0.2,0-0.2-0.2-0.4-0.2c-0.3,0-0.7,0.5-0.9,0.6c0,0.2,0,0.5,0,0.7 c-0.2,0.1-0.2,0.3-0.4,0.3c-0.2,0-0.1,0-0.2,0V123h-0.3c-0.2,0,0,0.1-0.1,0.1c-0.2,0-0.3-0.1-0.5-0.2c-0.1-0.1-0.1-0.1-0.1-0.2 h-0.4c0,0.2,0,0.4,0,0.5c-0.2,0.2-0.2,0.4-0.6,0.4c-0.2,0-0.2,0-0.2,0V123h-0.5c0,0.1,0,0.1-0.2,0.1c-0.2,0-0.1,0-0.2,0v-0.6 c0.1,0,0.2-0.1,0.3-0.3c0.1,0,0.3,0,0.5-0.1c-0.1-0.2,0.3-0.1,0.4-0.2c0-0.2,0.2-0.3,0.2-0.5V121h-0.4c0,0.4-0.5,0.9-0.8,0.9 c-0.2,0-0.1,0-0.2,0v-0.4c0.2-0.1,0.2-0.2,0.6-0.3v-0.6c-0.4-0.2-0.4-0.5-0.4-0.5c0-0.2,0.2-0.3,0.4-0.3v-0.4 c-0.3,0-0.4-0.2-0.6-0.1c-0.1,0.1-0.1,0.1-0.1,0.1c-0.2-0.3-0.3-0.2-0.3-0.5c0-0.2,0-0.2,0-0.3h0.5c0,0.1,0,0.1,0.1,0.2 c0.3,0.1,0.4,0.2,0.6,0.2c0.2,0,0.3-0.2,0.4-0.2v-0.8h1.2v-0.4c-0.2-0.1-0.4,0.1-0.6-0.2h-0.8c0,0.2-0.3,0.8-0.6,0.8 c-0.2,0-0.4-0.2-0.4-0.4c0-0.3,0.6-0.5,0.8-0.6c0.1-0.2,0.1-0.5,0.2-0.7c0.1-0.3,0.3-0.5,0.3-0.5v-0.6c-0.2,0.1-0.3,0.1-0.5,0.1 c-0.2,0-0.5-0.1-0.5-0.4c0-0.2,0-0.2,0.1-0.3c0.7,0.1,1.4-0.3,1.4-1h0.2c0,0.1,0.2,0.2,0.3,0.2c0.1-0.3,0.3-0.2,0.4-0.2v-0.4h-0.4 c0.1-0.5-0.4-0.3-0.4-0.9c0-0.7,0.8-0.5,0.8-1.1c0-0.2-0.2-0.3-0.2-0.5c0-0.2-0.1-0.2,0.1-0.3c0.3,0,0.6-0.4,1.1,0v-0.6 c-0.3-0.1-0.4-0.2-0.6-0.3v-0.3c0.3-0.1,0.8-0.1,0.8-0.4c0-0.2-0.2-0.2-0.2-0.4c-0.2,0-0.2,0.2-0.3,0.2c-0.3,0-0.5,0.2-0.8,0.2 c-0.1,0-0.5,0.6-0.8,0.6c-0.2,0-0.2,0-0.2,0c0-0.3-0.3-0.5-0.3-0.7c0-0.2,0-0.2,0.1-0.4c0.2,0,0.4,0,0.7-0.1 c0-0.2,0.3-0.1,0.3-0.3V108c-0.4,0-0.4-0.2-0.4-0.4c0-0.2,0-0.1,0-0.2c0.1,0.2,0.4,0.5,0.6,0.6h0.6v-0.3c0-0.2-0.1,0.1-0.2-0.1 v-1.1c-0.4-0.1-0.4-0.2-0.6-0.3v-1.2c-0.7,0-0.3-0.7-0.4-1.1h-0.4c0,0.7-0.1,0.8-0.3,1.1h-1c-0.2,0.3-0.4,0.6-0.7,0.9 c0.2,0.1,0.2,0,0.2,0.2c0,0.2,0,0.1,0,0.2h-0.3v-2c-0.3-0.1-0.5-0.2-0.7-0.2c-0.1-0.2-0.3-0.4-0.5-0.4c0-0.3-0.2-0.7-0.2-1.2 c-0.3-0.2-0.6-0.2-0.7-0.2c0.3-0.3,0.3-0.3,0.7-0.3c0.1-0.1,0.1-0.1,0.2-0.2c0-0.2,0-0.3,0-0.4c0.2-0.2,0.5-0.2,0.8-0.2 c0.2-0.3,0.4-0.6,0.6-0.6c0.2,0,0.5,0.3,0.5,0.5s0,0.1,0,0.2h-0.3c-0.2,0,0-0.2-0.2-0.2l-0.3,0.1c0.2,0.4,0.5,0.4,0.6,0.9h0.5 c-0.1-1.1-0.1-1.2,0-1.3c0.3,0,0.6-0.2,0.8-0.2c0.1,0,0.2-0.1,0.4,0.2h0.8v-0.5c-0.3,0-0.5,0-0.7-0.1c0,0,0-0.1-0.1-0.2 c-0.3,0-0.7-0.1-0.7-0.4c0-0.2,0.2-0.5,0.3-0.7c0-0.3,0-0.6,0.1-0.8c0.1-0.1,0.1-0.2,0.1-0.2c0.1-0.1,0.3-0.1,0.4-0.1 c0.1-0.1,0.2-0.2,0.3-0.3c0.1,0,0.2,0,0.3-0.1c0-0.2,0.3-0.3,0.2-0.5c-0.5,0-0.4-0.5-0.7-0.8c-0.4,0.3-0.3,0.4-0.4,0.6h-0.2 c-0.1-0.2-0.2-0.3-0.3-0.5c0.2-0.2,0.2-0.3,0.2-0.4h0.3c0,0.1,0.1,0.2,0.2,0.2c0.2-0.2,0.4-0.5,0.7-0.8h-1.2 c0.2,0.3-0.7,0.2,0.1,0.2l-0.5,0.7h-0.6v-0.9c0-0.2,0.2-0.4,0.2-0.5h0.8v-1h-0.4c-0.3,0.5-0.2,0.4-0.6,0.4c-0.1,0-0.2,0.1-0.4-0.2 h-0.4c0,0.2-0.1,0.2-0.2,0.2v0.4c0.3,0.1,0.4,0.2,0.6,0.2v0.7c-0.3,0.2-0.2,0.3-0.2,0.4h-0.4c-0.2-0.2-0.3-0.2-0.3-0.6 c-0.4,0-0.8-0.2-0.6-0.6c-0.2,0.1-0.6,0.6-0.6,0.7c0,0.2,0.2,0.2,0.2,0.4c0,0.2-0.2,0.4-0.2,0.6h-0.3c-0.2-0.3-0.3-0.1-0.3-0.5 c0-0.3,0.1-0.2,0.4-0.8c-0.1,0-0.1-0.1-0.2-0.3h-1c-0.1,0.3-0.1,0.2-0.3,0.2c-0.6,0-0.4-0.7-0.4-1.2c-0.3-0.1-0.4-0.2-0.4-0.4h-1 v0.5c0.3-0.1,0.5-0.1,0.6,0c0,0.4,0.1,0.3,0.1,0.3v1h-0.3v-0.6c-0.7,0.2-0.7-0.3-1-0.5c-0.1,0-0.3,0-0.3,0c-0.2-0.3-0.2-0.7-0.3-1 c-0.4,0.2-0.6,0.5-1,0.8c-0.1,0.2-0.4,0.9-0.6,0.9c-0.2,0-0.3-0.2-0.4-0.2c-0.1,0.2,0.2,0.3,0.2,0.5c0.3,0.1,0.4,0.2,0.5,0.3 c0,0.1,0,0.3,0,0.5c0.1,0.1,0.4,0.4,0.4,0.6c0,0.2,0,0.1,0,0.2c-0.3,0-0.6,0-0.9,0c0,0.1-0.1,0.2-0.2,0.2 c-0.1,0.2-0.1,0.3-0.1,0.5h-0.2v-0.4c0,0,0,0,0.2,0v-0.5c-0.6,0.1-1.3,0-1-0.8h-1.3v0.7c0.3,0.1,0.2,0.2,0.2,0.3 c0,0.2,0,0.2,0,0.3h-0.3c0-0.1-0.3-0.2-0.3-0.3c0-0.2,0.1-0.2,0.2-0.2v-0.4c-0.3-0.1-0.4-0.7-0.4-1c-0.2,0-0.2-0.1-0.2-0.2 c0.2-0.1,0.3-0.2,0.6-0.3c-0.1-0.2-0.2-0.3-0.2-0.5c0-0.3,0.1-0.4,0.6-0.5c0-0.2,0.1-0.2,0.2-0.4c0-0.4,0.2-0.7,0.2-1 c0.3,0,0.6-0.2,0.7-0.2c0.4,0,0.4,0.2,1,0.2c0-0.2,0-0.3,0.1-0.4h0.7v-0.7c-0.3-0.1-1.2,0.2-1.2-0.4c0-0.3,0.4-0.6,0.6-0.7 c0.1-0.5,0.2-1.1,0.3-1.6c0.2,0,0.3-0.1,0.5-0.2c0.3-0.4,0.6-0.9,0.6-1v-0.5h-0.4c0.2,0.4-0.3,0.7-0.5,0.9 c-0.2,0.2-0.4,0.3-0.6,0.4c-0.1,0.1,0,0.1-0.1,0.2c-0.2,0-0.4,0-0.7,0c0,0.2,0,0.4,0,0.6c-0.3,0.3-0.7,0.7-1,1h-0.5 c-0.2-0.3-0.6-0.6-0.6-0.8v-1c0-0.2,0.2-0.2,0.2-0.4c0.2-0.1,0.4-0.3,0.6-0.5c0.2-0.4,0.3-0.4,0.3-0.4v-0.4c-0.3,0-0.6,0-0.8-0.1 c-0.1-0.1-0.3-0.3-0.5-0.3v0.6c0.3,0.2,0.2,0.2,0.2,0.3c0,0.2,0,0.2,0,0.2c-0.5-0.2-0.3-0.4-0.4-0.5c-0.3-0.2-0.3-0.2-0.3-0.5 c0-0.2-0.1-0.3,0.2-0.4c0.1,0,0.3-0.1,0.4-0.3h-0.6c-0.2,0.3-0.4,0.4-0.5,0.6c-0.2,0-0.4,0.1-0.5,0.2c0,0.3,0,0.5-0.1,0.6 c-0.2,0-0.4,0-0.7,0.1c0.1,0.4-0.5,0.1-0.7,0.2c0,0.2,0,0.4-0.1,0.5h-1c0.1,1.5,0.1,1.6,0,1.6c-0.1-0.1-0.2-0.1-0.3-0.2v-1 c-0.2,0-0.2,0-0.2-0.2c0-0.2,0.2-0.6,0.2-0.9c0.2-0.1,0.2,0,0.2-0.3c0-0.2-0.3-0.6-0.4-0.9h-0.4v1.4c0,0.2,0.1-0.1,0.1,0.1 c0,0.2,0,0-0.1,0.1c-0.1,0.2-0.1,0.4-0.1,0.6c-0.3,0.2-0.5,0.4-0.8,0.6c0,0.3-0.1,0.6-0.2,0.8c-0.1,0.1-0.2,0.2-0.2,0.3 c-0.7,0-0.8,0-0.9,0c0-0.4-0.1-0.7-0.2-1c-0.2-0.3-0.5,0-0.6-0.4c-0.2-0.1-0.4-0.1-0.5-0.1v-1.5c-0.2,0-0.2,0-0.2-0.2 c0-0.2,0.1-0.1,0.2-0.1v-0.8c-0.3,0.1-0.4,0.3-0.7,0.4c0,0.1,0.2,0.3,0,0.3h-0.5c-0.1-0.1-0.2-0.2-0.2-0.3v-0.9 c0.3-0.3,0.6-0.7,1.1-0.5v-0.5c-0.1,0-0.1,0.1-0.1-0.2c0-0.2,0.2-0.1,0.1-0.2v-0.5h-0.4c0,0.2,0,0.4,0,0.5 c-0.3,0.4-0.9,1.1-1.2,1.1c-0.2,0-0.1,0-0.2,0v-0.6c0.2-0.1,0.4-0.3,0.6-0.5c0-0.2,0.1-0.5,0.4-0.7v-0.5c-0.4,0-0.6-0.2-0.6-0.4 h-0.5c0,1.2,0,1.3,0,1.4h-0.5c-0.1-0.1-0.2-0.2-0.2-0.4c-0.2-0.1-0.4-0.1-0.5-0.1c-0.2-0.3-0.2-0.5-0.2-0.7c-0.1,0-0.1,0-0.2-0.1 v-1.8c-0.2-0.1-0.2-0.2-0.2-0.4H121c0.2,0.4,0.4,0.7,0.4,0.9c0,0.1,0,0.2-0.2,0.3c0,0.1,0,0.4,0,0.5c-0.3,0.3-0.7,0.7-1,1 c-0.2,0-0.5,0.1-0.7,0.2c0.3,0.3,0.4,0.5,0.4,0.6c0.4,0.3,0.3,0.2,0.3,0.6c0,0.2-0.4,1.1-0.4,1.8c-0.7,0-0.8,0-0.8,0 c0-0.2-0.2-0.4-0.2-0.5c0-0.2,0.2-0.1,0.2-0.3v-0.7c-0.4-0.1-0.5-0.3-0.6-0.3c-0.2,0.3-0.3,0.2-0.4,0.2c-0.2,0-0.3,0-0.4,0v-1.4 c-0.3,0-0.5,0-0.6,0v-0.5c0.1-0.1,0.2-0.1,0.4-0.1V82c-0.3-0.1-0.5-0.6-0.4-1h-0.6c-0.1,0.3-0.2,0.3-0.4,0.4v0.4 c0.3,0.1,0.4,0.3,0.6,0.3c-0.1,0.1-0.2,0.2-0.3,0.3c0-0.1,0-0.1-0.1-0.2c-0.3,0-0.4-0.2-0.6-0.2c0-0.2-0.2-0.3-0.2-0.5 c0-0.2,0.2-0.4,0.2-0.6h0.4c0-0.3,0-0.5,0-0.6h0.9v-1c-0.3,0.2-0.6,0.4-0.9,0.6c-0.1,0.1-0.1,0.2-0.1,0.2c-0.1-0.1,0-0.1-0.1-0.2 H115c0,0.3,0,0.2-0.2,0.4V82c0.2,0.1,0.2,0,0.2,0.1v1.3c-0.2,0.1-0.3,0.2-0.4,0.2c-0.2,0-0.3-0.1-0.5-0.1c-0.3,0-0.4,0.1-0.6,0.2 c0,0.2,0,0.3,0,0.3c-0.1,0.1-0.3,0.2-0.3,0.4c-0.1,0.1,0.2,0.3-0.1,0.3h-0.4c0,0.3,0,0.5-0.1,0.7c-0.1,0.1-0.5,0.5-0.5,0.7 c0,0.2,0.1,0,0.1,0.2v1.4c0.3,0,0.3,0.2,0.5,0.1c0-0.1,0-0.1,0.2-0.1c0.2,0,0.1,0,0.2,0v0.3c-0.3,0.1-0.4,0.3-0.8,0.4 c-0.3,0.2-0.3,0.6-0.8,0.6v0.5c0.3,0,0.7,0.4,0.7,0.6c0,0.2-0.1,0.3-0.1,0.5c0,0.4,0.4,0.2,0.4,0.8c0,0.2,0,0.2,0,0.2 c-0.1,0.1-0.2,0.2-0.3,0.3c0-0.1-0.2-0.2-0.3-0.3c0-0.3,0-0.7-0.2-1h-0.6c0,0.2,0.1,0.3,0.2,0.4v0.8c-0.1,0.1-0.2,0.2-0.3,0.2 h-1.5v-0.5c-0.2,0.1-0.4,0.4-0.6,0.4c-0.2,0-0.1,0-0.2,0c-0.1-0.3,0.1-0.9-0.4-0.9c0,0.9-0.4,1.8-1.4,1.8 c-0.2,0.2-0.4,0.5-0.9,0.5c-0.2,0-0.3,0-0.3-0.1c0-0.3-0.1-0.7-0.1-1.1c-0.2,0-0.3-0.2-0.4-0.2c0,0.4-0.3,0.5-0.4,0.5 c-0.1,0-0.4-0.2-0.4-0.3c0-0.2,0-0.1,0-0.1c0.3,0.1,0.4-0.4,0.8-0.4c0-0.2,0-0.3,0.1-0.5c0.4-0.1,0.6-0.3,0.7-0.6h-0.7 c-0.1,0.3-0.1,0.3-0.4,0.6c-0.1,0.1-0.1,0.3-0.1,0.4c-0.1,0.1-0.2,0.2-0.3,0.2c-0.3,0-0.4-0.3-0.6-0.4c-0.1,0.2-0.3,0.6-0.7,0.6 c-0.2,0-0.2,0-0.3,0v-0.3c0.2-0.1,0.3-0.3,0.5-0.3v-0.7c-0.2,0-0.3,0.2-0.5,0.3c0,0.2,0.2,0.4,0,0.4h-0.7v-0.5 c0.1-0.1,0.3-0.1,0.3-0.3h-0.4v0.5c-0.3-0.2-0.9,0-1.3,0c0.1,0.3,0.3,0.5,0.4,0.6c-0.3,0.2-0.4,0.3-1,0.3 c-0.1,0.4,0.1,0.9-0.3,0.9c-0.1-0.1-0.3-0.2-0.3-0.2v-2c0.1-0.1,0.2-0.2,0.3-0.3h1.1c-0.1-0.2-0.2-0.2-0.3-0.4 c-0.3-0.1-0.6-0.2-0.8-0.2c-0.2,0-0.5,0.1-0.7,0.2c-0.2,0.4-0.6,0.7-1.1,0.8c0.3,0.4,0.6,0.2,0.6,0.7c0,0.2,0,0.2,0,0.3h-1 C97.6,91,97,91.1,96.5,91c0.2-0.1,0.4-0.3,0.4-0.5c0.1,0,0.3,0,0.3,0c0.2-0.2,0.2-0.3,0.3-0.4c0.5-0.1,0.9-0.5,1.7-0.6 c0.3-0.2,0.1-0.6,0.7-0.5v-0.6c-0.4-0.2-0.9-0.2-1.2-0.3c-0.1-0.4-0.3-1-0.8-1.3v0.4c0.2,0.2,0.2,0.1,0.2,0.3c0,0.2,0,0.2,0,0.2 c0,0.1-0.2,0.1-0.2,0.2c0.2,0.1,0.3,0.2,0.4,0.4c0.2,0,0.4-0.2,0.4,0V89h-0.7c-0.1,0.3-0.2,0.4-0.4,0.5c0,0.2,0,0.4-0.1,0.5H97 c-0.1-0.2-0.1-0.3-0.2-0.6c0-0.6,0-0.7,0-0.8c0.2,0,0.6,0,0.7-0.1c-0.3-0.5-1.3,0-1.2-1.1c-0.4-0.2-0.4-0.3-0.4-0.3h-0.4 c0,0.2,0,0.2,0,0.2c-0.4,0-0.8,0.2-1.3,0.2c-0.1,0.2-0.1,0.2-0.2,0.2c-0.1-0.2-0.4-0.4-0.4-0.5c0-0.2,0-0.1,0-0.2h1.1 c0.3-0.3,0.3-0.2,0.3-0.7c-0.2,0-0.3,0-0.4-0.1v-0.7c-0.4,0.2-0.4-0.2-0.6-0.2c0,0.5-0.2,1-0.2,1.4c-0.3-0.1-0.8,0.2-0.8,0.5 c0,0.2,0,0.2,0,0.3c0.1,0.1,0.1,0,0.2,0.1c0,0.3,0,0.6,0,0.9c0.1,0.2,0.2,0,0.2,0.4c0,0.2,0,0.2,0,0.3h-0.5v-1.4h-0.5v0.6 c0.2,0,0.2,0.1,0.2,0.2c0,1.5,0,1.6-0.1,1.6c-0.1,0-0.2-0.2-0.3-0.3c0-0.2-0.1-0.4-0.2-0.7c-0.3,0-0.6,0-0.7-0.1 c0-0.7-0.5-0.2-0.5-0.9c0-0.1,0.1-0.3,0.3-0.6c-0.3-0.2-0.3-0.2-0.3-0.3c0-0.3,0.4-0.7,0.8-0.5v-0.4c-0.7,0.1-0.7-0.2-0.8-0.6 h-0.4c0,0.2,0,0.2-0.2,0.2c-0.2,0-0.3-0.3-0.6-0.4c-0.2,0.3-0.4,0.6-0.6,0.8c0,0.2,0,0.5-0.1,0.6h-1.5c-0.1-0.1,0-0.1-0.1-0.2 h-0.5c0.1,0.4-0.3,0.6-0.5,0.8h-1.1c0.1,0.3,0.1,0.6,0.1,0.7h-0.6c-0.1-0.2-0.3-0.4-0.5-0.4c0.3,0.4,0.6,0.8,0.8,1.3 c0.2,0,0.3,0,0.4,0c0.2,0.3,0.6,0.6,0.6,0.8c0,0.2,0,0.1,0,0.2h-0.4v0.6c0.3,0,0.3,0.2,0.4,0.3V92c0,0.2-0.1,0.1-0.1,0.1 c0,0.3,0,0.5-0.1,0.7c-0.2,0.1-0.3,0.3-0.5,0.4c0-0.1,0-0.1,0-0.2h-0.8c-0.1,0.6-0.8,1-0.9,1c-0.2,0-0.2,0.1-0.3,0v-0.3h-0.5 c-0.1,0.2,0,0.3-0.1,0.4h-0.4c-0.1-0.1-0.1-0.1-0.1-0.2c-0.3,0-0.6,0-0.9-0.1c-0.1-0.1-0.2-0.1-0.3-0.1c-0.1,0.1-0.1,0.1-0.1,0.2 v1.3c-0.4,0.2-0.2,0.3-0.3,0.4c-0.3,0-0.6,0-0.8,0c-0.5,0.3,0.1,1.1-0.6,1.2v0.7c0.6,0.1,0.7,0.8,0.7,1c0,0.6-0.3,0.5-0.6,1 c-0.1,0-0.4,0-0.6,0.1v2.3h-0.5c-0.1-0.2-0.3-0.2-0.3-0.4c-0.3,0-0.4-0.2-0.6-0.3c0-0.3-0.2-0.5-0.4-0.5v1 c0.2,0.3,0.1,0.2,0.4,0.5v1c-0.4,0.1-0.3,0.8-0.7,1.2c0.3,0.2,0.2,0.2,0.2,0.4c0,0.2,0,0.2,0,0.3h-0.3v-0.7 c-0.3,0-0.5-0.2-0.7-0.2c-0.1,0.2-0.2,0.3-0.2,0.5c0.1,0,0.1,0,0.2,0.1c-0.2,0.1-0.4,0.5-0.8,0.4c0,0.2,0,0.4,0,0.6 c-0.2,0.1-0.2,0.3-0.4,0.3c-0.2,0-0.1,0-0.2,0v-0.5c0.1-0.1,0.1,0,0.2-0.1v-0.4c-0.2-0.2-0.2-0.4-0.3-0.4c-0.1,0-0.1-0.2-0.1-0.2 c-0.3-0.1-0.3-0.3-0.4-0.8c-0.2,0-0.2,0-0.2-0.2c0-0.2,0.2-0.5,0.4-0.8h-0.4c0,0.2,0,0.2-0.2,0.2c-0.2,0-0.1,0-0.2-0.1 c0-0.1,0-0.4-0.1-0.5c-0.3,0.2-0.2-0.3-0.2-0.4c0-0.2,0.2-0.5,0.2-0.7c0-0.2-0.2-0.3-0.2-0.5h-0.4c-0.1,0.3-0.2,0.4-0.3,0.4 c-0.2,0-0.6-0.2-0.6-0.5c0-0.2,0.2-0.4,0.5-0.4c-0.1-0.7-0.5-0.4-0.7-0.5v-0.3c0.2-0.1,0.4-0.2,0.7-0.2v-0.8 c-0.1-0.1-0.4-0.2-0.4-0.4c0-0.2,0.2-0.4,0.4-0.4v-1.4h-0.6c-0.2,0.3-0.3,0.3-0.6,0.4c-0.1,0.2-0.2,0.3-0.4,0.3v0.4 c0.1,0,0.4,0.2,0.4,0.5c0,0.2,0,0.1,0,0.2h-0.4c0-0.1-0.2-0.2-0.3-0.2c0,0.5-0.4,0.7-0.5,0.8c-0.2-0.2-0.2-0.4-0.2-0.7 c-0.1,0-0.2,0-0.2-0.1c0-0.2-0.1-0.4-0.2-0.5c0.1,0,0.2-0.3,0.4-0.3c0.2,0,0.1,0,0.2,0v0.3h0.6c0.1-0.4-0.1-0.7,0.2-1 c0.1-0.3,0.1-0.6,0.1-0.8c0-0.1,0.2,0,0.1-0.2v-0.6c-0.3,0-0.4-0.2-0.6-0.4c-0.1-0.1-0.4-0.1-0.4-0.5h-0.5c0,0.3,0.3,0.2,0.3,0.5 c0.1,0.2,0.3,0.4,0.3,0.7c0,0.3-0.5,0.6-0.5,0.6c-0.1-0.4-0.7-0.1-1-0.3v-0.3h-0.4c0.1,0.3-0.1,0.7-0.3,0.7 c-0.1-0.1-0.3-0.4-0.5-0.4c0-0.3,0.1-0.6,0-0.9c-0.1-0.1-0.2-0.3-0.2-0.4c-0.2-0.2-0.4-0.5-0.6-0.6h-0.4c-0.1,0.2-0.2,0.4-0.2,0.6 c0,0.2,0.2,0.5,0.2,0.8c0.2,0.1,0.2,0,0.2,0.2c0,0.2-0.3,0.2-0.3,0.4c-0.3,0.6-0.1,0.6-0.7,0.6c-0.2,0-0.2,0-0.3,0v-0.3 c-0.5,0-0.5-0.3-0.6-0.6c-0.1-0.2-0.4-0.4-0.6-0.6c-0.2,0-0.3,0-0.3-0.1c-0.1-0.1-0.2-0.2-0.3-0.3c-0.2-0.3-0.4-0.9-0.4-1.3h-0.4 c-0.3,0.3-0.8,0.1-1,0.2c0,0.1,0,0.1-0.1,0.2c-0.2,0-0.3,0.2-0.5,0.2c-0.2-0.2-0.4-0.4-0.6-0.5c-0.1,0.2,0,0.3-0.1,0.4 c-0.3,0-0.6,0-1,0c0,0.1-0.1,0.1-0.2,0.2c-0.2,0.2,0,0.9-0.4,1c0,0.2,0,0.4-0.1,0.5c-0.3-0.1-0.2,0.2-0.5,0.2 c-0.2,0-0.2-0.1-0.2-0.2h-0.6c-0.2,0.2-0.4,0.4-0.5,0.6c-0.3,0-0.6,0.2-0.8,0.2c-0.2,0-0.2,0-0.2,0v-0.5c0-0.1,0.1,0,0.2-0.1v-1.4 h-0.5c-0.1,0.3-0.2,0.4-0.4,0.4c0,0.5-0.2,0.9-0.2,1.4h-1.1c-0.1-0.2-0.1-0.2-0.3-0.2c-0.2,0-0.7,0.2-0.9,0.5v1.3h-0.5 c-0.2,0-0.3-0.2-0.4-0.2c-0.1,0-0.1-0.2-0.3-0.2v0.4c0.2,0.1,0.3,0.3,0.3,0.4c0.1,0,0.1,0,0.1,0.2c0,0.2,0,0.2-0.1,0.3 c-0.2-0.1-0.2-0.3-0.3-0.2v0.6c0.2,0.3,0.3,0.2,0.4,0.6c0.2,0.1,0.3,0.2,0.3,0.4c0,0.2,0,0.1,0,0.2h-0.5c-0.2,0-0.2-0.2-0.4-0.2 c-0.1,0,0,0,0-0.2h-0.4c0.1,0.4-0.1,0.8-0.3,0.8c-0.2,0-0.3-0.2-0.4-0.3v-0.9c0.1-0.1,0.1,0,0.2-0.1v-0.4h-0.8 c-0.3,0.3,0,0.5-0.4,0.6c-0.1,0.5-0.1,0.5-0.6,0.5c-0.2,0-0.3-0.2-0.5-0.2c-0.2,0-0.5,0.4-0.7,0.4c-0.2,0-0.2-0.1-0.2-0.2h-1.1 c-0.1-0.1-0.3-0.2-0.3-0.3c0.2-0.1,0.2-0.2,0.2-0.5c0-0.2-0.2-0.6-0.2-1c-0.2-0.1-0.1-0.3-0.3-0.3h-0.4c0,0.2,0,0.2-0.2,0.2 c-0.2,0-0.1,0-0.2,0c0-0.1-0.1-0.3-0.1-0.4c0-0.2,0.1-0.4,0.1-0.6s-0.1-0.4-0.2-0.7c-0.6,0.3-0.3,1.1-0.5,1.4h-0.5 c-0.1-0.1-0.1-0.1-0.1-0.2c-1.2,0-1.3,0-1.4,0c0-0.2,0.1-0.8-0.4-0.9c-0.2,0.2-0.2,0.3-0.4,0.4v0.4c0.1,0,0.1,0,0.1,0.1 c-0.1,0,0,0-0.2,0c-0.3,0-0.3,0-0.5-0.4c-0.2-0.1-0.4-0.2-0.5-0.2c0,0,0-0.2-0.1-0.3c-0.2,0-0.3-0.3-0.5-0.3c0,0.2,0,0.2,0,0.3 h-1.1v-0.5c0.1-0.1,0.1-0.1,0.2-0.1v-1.4c-0.4-0.2-0.2-0.4-0.2-0.6c-0.1,0-0.1-0.1-0.2-0.2h-0.4v0.6c0.2,0.1,0.2,0.1,0.2,0.3 c0,0.2,0,0.2,0,0.2c-0.4-0.1-0.5,0.5-1,0.4v0.6c0.1,0.1,0.4,0.3,0.4,0.6c0,0.2-0.4,0.5-0.4,0.7c0,0.3,0.3,0.2,0.3,0.7 c0,0.2,0,0.3-0.1,0.4h-0.3c0.2,0.4-0.2,0.7-0.4,0.7c-0.2,0-0.3-0.2-0.3-0.3c-0.2-0.1-0.3-0.2-0.5-0.2L35,97.8 c0.1,0.2,0.2,0.4,0.3,0.5c0.2-0.1,0.1,0.3,0.2,0.4c0.5-0.1,0.3,0.2,0.7,0.4c0.6-0.1,0.9,0.7,1.3,0.9c-0.1,0-0.1,0.3-0.3,0.3 c-0.2,0-0.1,0-0.2-0.1v-0.5h-0.6c0,0.1,0,0.2-0.1,0.2c-0.1,0-0.1-0.1-0.1-0.2c-0.3-0.1-0.6-0.2-0.8-0.2c-0.2,0-0.6,0.3-0.8,0.4 v1.6c0.3,0,0.3,0,0.3,0.2c0,0.3-0.5,0.3-0.6,0.4c-0.2,0.3-0.4,0.6-0.5,0.9c-0.2,0.1-0.3,0.4-0.6,0.4v0.4c0.3,0.3,0.6,0.6,0.8,0.8 c-0.1,0-0.1,0-0.2,0c0,0.4-0.1,0.9-0.8,0.7c-0.1,0.2,0,0.4-0.1,0.4c-0.2,0.2-0.3,0.4-0.5,0.5c-0.1,0.3-0.1,0.8-0.8,0.6v1.1 c0.3-0.1,0.8,0,0.8,0.3c0.2,0.1,0.3-0.1,0.3,0.1v0.4c-0.1,0-0.2,0.3-0.4,0.3v1c0.3,0.1,0.2,0.3,0.2,0.5c0,0.2,0,0.3,0,0.4 c-0.1,0.1-0.2,0.1-0.2,0.3c0.1,0,0.1,0,0.2,0.1c0,0.4,0.2,0.8,0.2,1.3h0.6c0.1-0.2,0.2-0.1,0.4-0.1c0.2,0,0.6,0,0.6,0.3 c0,0.4-0.7,0.5-1.2,0.4c-0.2,0.4-0.6,0.9-0.6,1.1c0,0.2,0.2,0.4,0.2,0.6c0,0.2,0,0.3,0,0.5h-0.4c-0.2,0-0.4-0.1-0.5-0.2v-0.2 c0.2-0.1,0.2-0.3,0.5-0.4c-0.4-0.3-0.2-0.4-0.3-0.5c-0.2-0.3-0.8-0.6-0.8-1c-0.1-0.1-0.2-0.1-0.2-0.1c0-0.1,0.1-0.1,0.2-0.1v-0.4 c-0.3-0.2-0.6-0.3-0.6-0.9H30c0,0.2,0,0.3,0,0.4h-0.4v0.8c0.4,0,0.3,0.5,0.4,0.7c0.2,0.1,0.2,0,0.2,0.2c0,0.2-0.4,0.4-0.4,0.6 c0,0.2,0.2,0.4,0.3,0.5c0,0.3,0.2,0.6,0.2,0.7c0,0.4-0.3,1.2-0.6,1.5c-0.7,0-0.9,0-0.9,0c0.1-0.3-0.2-0.5-0.2-0.7 c-0.3-0.2-0.4-0.4-0.6-0.7c-0.2,0-0.3-0.1-0.5-0.1c0.1,0.3,0,1-0.3,1c-0.2,0-0.1,0-0.2,0V116c0.1-0.1,0.2-0.3,0.4-0.3v-1.2 c-0.1,0-0.2,0-0.3-0.1v-1.2h-0.4c0,0.4-0.5,0.4-0.7,0.4c-0.1,0.3-0.1,0.5-0.4,0.5c-0.2,0-0.1,0-0.2,0c-0.1-0.2-0.2-0.3-0.2-0.6H25 c-0.1,0.1-0.1,0.1-0.3,0.1v0.5c0.3,0.2,0.4,0.4,0.4,0.7c0,0.2,0.1,0.2,0,0.3c-0.3,0.1-0.6,0.1-1.1,0.2c0.2,0.3-0.3,0.2-0.4,0.2 c-0.2,0-0.2,0-0.3,0c-0.2-0.2-0.4-0.3-0.5-0.6c-0.3-0.1-0.5-0.1-0.7-0.1v-0.4c0-0.2,0.4-0.8,0.4-1c0-0.2-0.3-0.3-0.3-0.5h-0.4 c-0.2,0.3-0.4,0.3-0.7,0.3c-0.2,0-0.1,0.1-0.2,0c-0.1-0.1-0.2-0.2-0.3-0.3c-0.2-0.1-0.4-0.1-0.5-0.2c-0.4-0.3-0.6-0.4-1.1-0.6 v-0.3c0.3,0,0.2-0.7,0.6-0.8v-0.4h-0.4c-0.1,0.4-0.3,0.5-0.4,0.5c-0.3,0-0.3-0.4-0.6-0.4c-0.2,0-0.3,0-0.4,0.2h-0.8 c-0.1-0.2-0.1-0.2-0.4-0.2c-0.3,0-0.6,0.5-0.8,0.6c-0.2,0-0.5,0.1-0.7,0.2c0,0.3-0.2,0.5-0.2,0.7c0,0.2,0.2,0,0.2,0.2v1.1h-0.3 c0-0.1,0-0.1,0-0.2h-0.6c-0.1,0.2,0.1,0.3,0.1,0.3c-0.4,0.2-0.2,0.3-0.4,0.3c-0.2,0-0.5-0.2-0.5-0.4c0-0.2,0.4-0.6,0.6-0.9 c-0.2-0.1-0.4-0.2-0.6-0.3c-0.1-0.1-0.1-0.2-0.2-0.2c-0.1,0.3-0.4,0.4-0.6,0.4c0.1,0.4-0.5,0.2-0.6,0.2c-0.1,0.4-0.2,0.8-0.3,1.2 H11c-0.2-0.4-0.5-0.2-0.7-0.3v-0.4c0.1-0.1,0.3-0.2,0.2-0.3h-0.4c-0.2,0.3-0.6,0.3-0.9,0.4c0,0.1,0,0.2-0.1,0.2 c-0.2-0.3-0.3-0.2-0.4-0.3v-0.7H8.4v1.3c-0.2,0.1-0.3,0.3-0.5,0.3v0.4c0.2,0,0.2,0.1,0.3,0.2c0.3,0,0.7,0,0.8,0.4 c0.3,0.1,0.4,0.2,0.6,0.3v1.3c0.1,0,0.1,0.1,0.2,0.3c1.2,0,1.2,0.4,1.5,0.4c0.2,0,0.5-0.4,0.7-0.4c0.2,0,0.4,0.2,0.6,0.1 c-0.1,0.4,0.4,0.8,0.6,0.6c0,0.5,0.3,1.1,0.6,1.6c0.2,0,0.6,0,0.8,0c0.6,0.6,1.1,1.2,1.6,1.7c-0.1,0-0.2,0.2-0.4,0.2 c-0.3,0-1.2-1.3-1.4-1.4v0.5c0.3,0.2,0.2,0.2,0.2,0.3c0,0.2,0,0.2,0,0.3c-0.3-0.5-0.8-0.9-1.2-1.2v0.4c0.3,0.2,0.3,0.2,0.3,0.5 c0,0.2,0.1,0.2,0,0.3h-0.4c-0.2,0-0.1-0.1-0.1-0.1c-0.2,0-0.4,0-0.5-0.1c0-0.2-0.2-0.4-0.4-0.4c0-0.1,0,0,0-0.2 c0-0.3,0.5-0.8,0.8-0.9v-0.4h-0.6c-0.3,0.2-0.5,0.8-1,0.8v0.6c0.2,0.2,0.3,0.3,0.4,0.4c0.1,0,0.2,0,0.3,0.1c0.2,0.2,0.5,0.4,1,0.4 c0.2,0.3,0.2,0.3,0.5,0.3c0.3,0.1,0.8-0.2,0.9,0.3h2.1c0.2,0,0.2,0.2,0.3,0.2c0.1,0.2,0.4,0.3,0.5,0.6c0.5,0.1,0.8,0.5,1.4,0.9 c0,0,0.2,0,0.3,0.1c0.1,0.3,0.6,0.4,0.6,0.9c0,0.2,0,0.2-0.1,0.3h-0.8c-0.1-0.1,0-0.1-0.1-0.2H18c0.3,0.3,0.5,0.4,0.6,0.6 c0.2,0,0.3-0.1,0.3,0v0.3c-0.4,0.2-0.8,0.2-0.9,0.6c0.4,0,0.7,0,0.9,0c0.1,0.1,0,0.1,0.1,0.2c0.2,0,0.3,0,0.3,0 c-0.2,0.5,0,0.3,0.2,0.6c-0.1,0-0.2,0.1-0.3,0.3H18v1.3c0.3,0.2,0.1,0.8,0.2,1c0.3,0.5,1.3,0.2,1.6,0.7h0.5c0.2-0.3,0.2-0.7,0.3-1 h0.6c0.1,0.1,0,0.2,0.1,0.4c0.5-0.1,0.3,0.2,0.7,0.4c0.1,0,0.3,0,0.6,0.2c0.2,0.1,0.8-0.1,0.8,0.4c0,0.2,0.1,0.1,0,0.2h-0.7v1.3 c-0.1,0-0.2,0.2-0.3,0.2c-0.1-0.1-0.2-0.2-0.2-0.3c-0.4-0.1-0.9,0.1-1-0.4c-0.2-0.1-0.2-0.2-0.4-0.2h-0.3v0.4 c0.2,0.1,0.3,0.1,0.5,0.2c0.3,0.3,0.6,0.6,0.8,0.8c0.1,0.1,0.1,0.3,0.1,0.4c0.3,0.1,0.7-0.2,1,0.2c0,0.1-0.2,0-0.1,0.2v0.4 c0.5-0.2,0.5,0.3,0.8,0.4c-0.1-0.5,0.6-0.8,0.7-1c0,0,0.1-0.3,0.2-0.4c0.1-0.6-0.1-0.9,0.5-0.9c0.2,0,0.2,0,0.2,0v0.3 c0,0-0.4,0.4-0.4,0.5c0,0.2,0.2,0.3,0.2,0.5c0,0.2-0.2,0.4-0.2,0.6c-0.1,0.1-0.2,0.1-0.2,0.2h0.4c0.2-0.3,0.6-0.1,0.8-0.2 c0.1-0.2,0.1-0.2,0.3-0.3c0-0.2-0.2-0.3,0-0.3h0.5c0,0.1,0.1,0.2,0.2,0.2v-0.7c-0.1,0-0.1,0-0.1-0.2c0-0.2,0-0.1,0.1-0.1 c0.2,0,0.5-0.2,0.7-0.2c0.4,0,0.3-0.1,0.6,0.3c0.2,0,0.4-0.1,0.4,0v0.4c-0.2,0-0.3,0.2-0.6,0.2v0.4c0.2,0.2,0.4,0.4,0.6,0.5 c0,0.5,0.4,0.6,0.9,0.8v0.6c0,0.2-0.2,0.1-0.1,0.2c0.1,0,0.1,0.1,0.2,0.2c0.4-0.2,0.4-0.5,0.6-0.6c0,0.1,0,0.1,0,0.2 c0.6,0.3,0.7,0.2,0.7,0.9c0,0.2,0,0.3,0,0.4h-0.2c-0.3-0.2-0.4-0.5-0.7-0.5c0.1,0.4-0.2,0.5-0.2,0.5c-0.2-0.1-0.4-0.2-0.5-0.2 c-0.2,0-0.6,0.2-0.8,0.2c-0.2,0-0.4-0.1-0.8-0.1c0.2,0.8-0.5,0.8-0.7,1.2c0-0.1,0-0.1,0-0.3c0-0.2,0.2-0.5,0.2-0.7 c0-0.7-0.2-0.5-0.5-1.2c0.2-0.2,0.5-0.4,0.5-0.7c0-0.2-0.2-0.4-0.2-0.6c-0.4,0.3-0.3,0.4-0.7,0.4c-0.2,0-0.3-0.2-0.5-0.2 c-0.2,0-0.2,0-0.2,0c-0.5,0.3,0,0.4-0.7,0.4c-0.1,0-0.3-0.1-0.6-0.2c0,0.3,0,0.5-0.1,0.7c-0.2,0-0.4,0.1-0.6,0.1 c-0.2,0-0.5-0.4-0.9-0.5c-0.2-0.4-0.5-0.7-0.6-1.1c-0.3-0.1-0.6-0.1-0.7-0.1c-0.1-0.4-0.4-1-0.8-1.4v0.9c0.3,0.2,0.2,0.3,0.2,0.4 c0,0.4,0.1,0.3-0.4,0.6c-0.1,0.1-0.2,0.4-0.5,0.4c-0.2,0.2-0.3,0.5-0.5,0.7c0.2,0.2,0.5,0.2,0.6,0.3v0.5h1.3 c0.1,0.1,0.6,0.6,0.6,0.8c0,0.2,0.1,0.2,0,0.3h-0.6c0,0.1,0,0.2-0.2,0.2v1.2c0.4,0.1,0.7,0.2,1.1,0.2c0,0.2,0.3,0.3,0.4,0.5 c0.2-0.3,0.4-0.3,0.4-0.3c0-0.1,0-0.2,0.2-0.2c0.2,0,0.1,0,0.2,0v0.6c0.3,0.1,0.4,0.2,0.4,0.4H24c0-0.5,0.5-0.8,0.7-0.8 c0.5,0,0.5,0.5,0.5,0.8c0.2,0.1,0.2,0.3,0.4,0.3c0.3,0,0.2-0.2,0.3-0.4h0.5c0.1,0.3,0.1,0.5,0.2,0.8h0.4c0-0.2,0.1-0.2,0.1-0.2 v0.3c-0.2,0.1-0.2,0.1-0.2,0.4c0,0.2,0,0.2,0.1,0.3c0.3,0.1,0.3,0.5,0.4,0.8c0.2,0,0.2,0.2,0.3,0.2c0.2,0.1,0.4,0.1,0.5,0.1 c0.1,0.1,0.5,0.3,0.4,0.7h1c0.2-0.4,0.2-0.4,0.5-0.4c0.3,0,0.3-0.1,0.5,0.4h0.4c0.1-0.3,0.1-0.2,0.3-0.2c0.1,0,0.2,0,0.4,0.2 c0.5,0.1,0.7,0.6,0.7,0.7c0,0.2,0.1,0.2,0,0.2h-1.5c0,0.2,0,0.2-0.2,0.2c-0.2,0-0.2-0.1-0.2-0.2h-0.5c0,0.3,0,0.6,0,0.7h-0.5 c-0.1-0.2-0.2-0.2-0.3-0.5h-0.5c-0.1,0.2-0.1,0.2-0.3,0.2c-0.2,0-0.4-0.2-0.6-0.2v0.4c0.4,0.1,0.6,0.3,0.6,0.7 c0,0.2-0.1,0.3-0.2,0.4c0.3,0.3,0.5,0.7,0.8,0.9c0,0.4,0.1,0.9,0.6,0.9v1c0.3,0.1,0.3,0.4,0.4,0.5c0,0.3,0.2,0.6,0.2,0.9 c0.3,0.1,0.3,0.3,0.3,0.4c0,0.2-0.3,0.4-0.4,0.6c0.4,0,0.4,0.2,0.4,0.4c0,0.2,0,0.2,0,0.2H30c-0.1,0.5-0.3,0.8-0.7,0.8 c-0.2,0.3-0.4,0.3-0.6,0.4c-0.1,0.1-0.2,0.2-0.2,0.4c0,0.3,0.5,0.5,0.6,0.5v0.7c0.2,0,0.3,0.2,0.4,0.1c0.1-0.2,0.3-0.1,0.4-0.2 c0.2-0.4,0.5-0.7,0.6-1c0.3,0,0.5-0.2,0.7-0.2c0.2,0,0.2,0,0.4,0v0.5c-0.1,0.1-0.2,0.3-0.3,0.3c-0.2,0-0.2-0.2-0.5-0.2 c0,0.1,0,0.2-0.2,0.2v0.4c0.5,0,0.9,0.2,1.4,0.2c0.3,0.1,0.1,0.7,0.2,0.9c0.1,0.3,0.4,0.2,0.8,0.3v0.2c-0.1,0.1-0.2,0.3-0.4,0.3 v0.4c0.2,0,0.3,0.2,0.5,0.2h1.5c0.1,0.1,0.1,0.2,0.2,0.3v1.5c0,0.2-0.1,0.1-0.1,0.3c0,0.2,0,0.2,0,0.3c0.2,0.1,0.2,0.2,0.3,0.3 c0,0.1,0.2,0.3,0.2,0.5l0,0l0,0l0,0c-0.1,0.1-0.2,0.4-0.2,0.6c0,0.2,0.1,0.4,0.2,0.7c0.6-0.1,0.9,0.1,1,0.6h0.6 c0.1-0.2,0-0.2,0.2-0.2c0.2,0,0.1-0.1,0.2,0c0,0.3,0.2,0.6,0.2,0.9c0.3,0.2,0.6,0.5,1,0.5c0.2,0,0.8-0.2,1.2-0.4 c1.2,0,1.2,0,1.3,0c-0.1,0.4,0.2,0.4,0.3,0.7c0.2,0.1,0.7,0.1,0.8,0.4h0.4c0.1-0.2,0.8-0.6,0.8-0.6c0.1,0,0.1,0,0.1,0l0,0 c0,0,0.1,0,0,0c0,0.2,0.7,0.3,0.8,0.4c0.3,0.3,0.4,0.7,0.7,1.1h1.4c0.2-0.3,0.4-0.3,0.4-0.3c0.2-0.2,0.2-0.4,0.4-0.4 c0.2,0,0.1-0.1,0.1,0v0.7h1.3c-0.1-0.3,0.3-1,0.6-1c0.1,0,0.1,0,0.3,0.2c0.2,0.1,0.6-0.2,0.8,0.3h0.4c0-0.2,0.2-0.3,0.2-0.5 c-0.1-0.1-0.5-0.5-0.5-0.7c0-0.2,0.1-0.3,0.2-0.4c0.1-0.2,0.3-0.4,0.6-0.5c0,0,0-0.2,0.1-0.2c0,0.2,0.1,0.2,0.3,0.3 c0,0.4,0.1,0.7,0.3,1.1c0.2-0.2,0.2,0.4,0.2,0.4h0.6c0-0.2,0.2-0.3,0.2-0.6c0-0.2-0.2-0.3-0.2-0.4c0.1,0,0.2-0.2,0.3-0.2 c0,0.1,0.2,0.2,0.2,0.4h0.7c0.1-0.3,0.2-0.4,0.4-0.4V162c-0.3-0.1-0.4-0.3-0.7-0.3v-0.2c0.4-0.1,0.7-0.3,0.9-0.3 c0.3,0,0.4,0.1,0.4,0.5c0,0.2-0.1,0.4-0.2,0.6c-0.2,0.2-0.3,0.4-0.6,0.5c0,0.1,0,0.3-0.1,0.3c-0.2,0.2-0.3,0.4-0.6,0.5 c0,0.2,0,0.4,0,0.5c-0.1,0.3-0.3,0.5-0.4,0.7c0.2,0,0.3,0,0.3,0.2h1.2c0-0.1,0.2-0.2,0.3-0.2c0-0.2-0.2-0.3,0-0.3h0.3 c0.2,0.3,0.2,0,0.5,0.4h0.4c0.3-0.3,0.5-0.6,0.8-0.9c0.1-0.4,0.6-1,0.8-1c0.2,0,0.1,0,0.2,0.1v0.5c-0.2,0.1-0.3,0.4-0.6,0.6v0.5 c0.3,0,0.5,0.3,0.7,0.3s0.9-0.5,1-0.6c0.2,0,0.5,0,0.6,0c0-0.1,0.1-0.1,0.2-0.2v-1c0.2-0.1,0.5-0.2,1-0.3 c-0.4-0.3-0.7-0.6-0.7-0.8c0-0.2,0.1-0.2,0.2-0.2c0.2-0.6,0.1-0.5,0.6-0.5c0.2,0,0.3,0,0.3,0c0.1,0.2,0.4,0.4,0.5,0.6v1.4h1 c0-0.2,0.1-0.2,0.2-0.2v-0.4c-0.1,0-0.2,0-0.2-0.1c0.4-0.1,0.1-0.7,0.3-1c0-0.2,0.1-0.3,0.3-0.3s0.1,0,0.2,0v0.8 c0.3,0.1,0.4,0.2,0.4,0.3c0,0.2-0.1,0-0.1,0.3v1.2c0.2,0.1,0.1,0.1,0.1,0.3c0,0.2-0.1,0.3-0.1,0.5c0.1,0.1,0.1,0.1,0.2,0.3h1.4 c0.2,0,0,0.1,0,0.1c0.2,0,0.4,0,0.6,0c0,0.1,0,0.1,0,0.2c0.4,0.1,1.1-0.3,1.2,0.4c0.3,0.1,0.5,0.1,0.7,0.1c0.1,0.1,0,0.1,0.1,0.2 c0.2,0.1,0.5,0.2,0.6,0.2c0.2,0,0.1-0.2,0.3-0.2c0.2,0,0.2,0.2,0.4,0.2c0.4,0,0.3-0.3,0.7-0.4c0.1,0.2,0.3,0.3,0.4,0.6 c0.4,0,0.9,0.2,1.1,0.2c0.2,0,0.7-0.2,0.9-0.2c0.2,0,0.5,0.2,0.7,0.2c0,0,0,0,0.1,0c4,4.4,7.8,9.3,9.7,13.4 c3.7,8,2.3,8.7,0.3,21.7c-1.6,10.7,4.8,15,4.8,15h18.2c0,0-8.2-4-9.7-10.3c-2.4-10-0.3-18.2,6.7-28.2c3.9-5.7,5.7-10.7,6.4-14.5 l2.1-0.2c0-0.2,0.1-0.3,0.4-0.5c0-0.1,0-0.2,0.1-0.3c0.2-0.1,0.3-0.3,0.6-0.5c-0.2-0.8,0.3-1.5,0.7-1.8c0.1-0.2,0.3-0.5,0.4-0.5 c0-0.2-0.2-0.3,0-0.3h0.5c0.1,0.2,0.3,0.4,0.4,0.4c0.3,0,0.6-0.4,1-0.4v-1.2c-0.1,0-0.1-0.1-0.2-0.1c0.1,0,0.2-0.1,0.2-0.2 c0.1,0,0.3,0.2,0.4,0.2c0,0.2,0.2,0.3,0.2,0.6c0.3,0.1,0.3,0.1,0.3,0.5c0,0.2-0.2,0.2-0.2,0.4c0,0.1,0.7,0.8,0.9,0.8h1.3 c0,0.3,0.1,0.3,0.3,0.3c0.2,0,0.8-0.4,0.9-0.4c0.2,0,0.2,0.1,0.4,0.1h1.1c0.2-0.3,0.6-0.7,0.9-0.7c0.2,0,0.3-0.1,0.5,0.3h0.4v-0.6 c-0.2-0.1-0.1-0.2-0.2-0.4c-0.1-0.1-0.3-0.3-0.3-0.6c0-0.2,0-0.1,0-0.2c0.3,0.1,0.5,0.4,0.5,0.7c0.3,0.2,0.4,0.2,0.4,0.4 c0.3,0.1,0.6,0.1,0.8,0.1c0.1,0.1,0.1,0.2,0.3,0.2v-0.9c-0.2,0-0.2,0-0.2-0.2c0-0.2,0-0.1,0-0.2h0.3c0.3,0.4,0.7,0.8,1.1,1.2h0.6 v-0.5c-0.3-0.2-0.4-0.4-0.5-0.7c0.3-0.2,0.6-0.2,0.7-0.3c-0.2-0.3,0.3-0.1,0.4-0.1c0.5,0,0.4-0.1,0.5,0.7c0.4,0.2,0.5,0.4,0.6,1.1 h0.4c0-0.1,0.1-0.1,0.2-0.2c0-0.2,0-0.3,0-0.4c0.2,0,0.4-0.2,0.7-0.2c0-0.2,0.2-0.2,0.2-0.2c0.1-0.3,0.6-0.7,0.6-0.7 c0.2,0,0.1,0,0.1,0c-0.2,0.3-0.2,0.7-0.4,0.9c-0.1,0.1-0.2,0.1-0.3,0.3c-0.2,0.2-0.4,0.3-0.7,0.4v0.7h0.7c0.2-0.2,0.4-0.4,0.5-0.6 c0.1-0.5,0.3-0.5,0.4-0.8h0.7c0,0.2,0.4,0.3,0.6,0.4c0.3,0.1,0.2,0.5,0.6,0.5c0.2,0,0.4-0.4,0.6-0.5v-0.4 c-0.5,0.2-0.9-0.3-0.9-0.6c0-0.2,0-0.2,0-0.3h0.8c0.1,0.1,0.2,0.2,0.3,0.2c0,0.1,0,0.4,0,0.6h0.7c0.2-0.5,0.2-0.4,0.5-0.4 c0.7,0,1.6,1.3,2,1.6c0.2-0.5,0.4-0.4,0.4-0.8c0-0.6-0.5-0.5-1-1.1V157c-0.1-0.3-0.5-0.4-0.7-0.7c-0.2,0-0.3,0.2-0.3,0v-0.4 c0.2-0.1,0.5-0.4,0.4-0.7c0.1-0.1,0.2-0.2,0.4-0.2c0.2,0,0.9,0.6,1,0.8c0.1,0,0.3,0,0.3,0c0.3,0.1,0.4,0.4,0.7,0.5v-0.4 c-0.1,0-0.1,0-0.1-0.2c0-0.2,0-0.1,0-0.2h0.3c0.1,0.4,0.6,0.3,0.9,0.4c0.1,0.1,0.2,0.2,0.3,0.2c0-0.2,0.2-0.3,0.2-0.4 c0.3,0.1,0.7,0.3,0.8,0.7c0.2,0.2,0.3,0.2,0.4,0.4h0.4v-0.7c-0.5-0.1-0.1-0.7-0.2-1c-0.1-0.1-0.1-0.2-0.2-0.4 c-0.1-0.2-0.2-0.2-0.2-0.3c0-0.2,0-0.2,0-0.3h0.5c0,0.1,0.2,0.2,0.2,0.4v1.2c0.3,0.2,0.3,0.4,0.3,0.4c0.2,0.1,0.3,0.3,0.4,0.4h1.3 c0,0.2,0.3,0.2,0.5,0.2c0.4,0,0.4-0.3,1-0.4c0.1-0.1,0.1-0.2,0.1-0.2c0,0.2,0.5,0.4,0.8,0.4c0.2,0,0.4-0.1,0.6-0.1 c0.2,0,0.3,0.1,0.4,0.1c0.2-0.2,0.2-0.1,0.3-0.1c0.2,0,0.4,0.1,0.6,0.1c0.6,0,0.4-0.5,0.5-0.9h0.2c0.2,0,0,0.1,0.2,0.1h0.7 c-0.3-0.7,0,0,0-1.7c0.3-0.2,0.2-0.3,0.3-0.4h0.9c0.1,0.1,0.2,0.3,0.3,0.5c0.3-0.1,0.2,0.3,0.2,0.4c0,0.2,0,0.2,0,0.3 c-0.2,0.2-0.4,0.5-0.6,0.7h0.6c0.1-0.4,0.5-0.1,0.8-0.2v-0.5c-0.3-0.1-0.2-0.1-0.2-0.3c0-0.1,0-0.1,0.2-0.3 c0.3-0.4,0.2-0.5,0.5-0.5c0.2,0,0.2,0,0.2,0v0.7h0.4c0.1-0.2,0.2-0.1,0.4-0.2c0.2-0.2,0.4-0.3,0.6-0.3c0.1-0.2-0.1-0.4,0.3-0.7 c0-0.3,0.1-0.6,0.2-0.9c0.1-0.3,0.2-0.2,0.2-0.4c0-0.4-0.8-0.8-0.8-1.2c0-0.3-0.1-0.3,0.5-0.5v-0.4c-0.3-0.2-0.3-0.3-0.3-0.4 c-0.2-0.1-0.2,0-0.2-0.2C152.5,149.4,152.5,149.5,152.5,149.4z M90.2,161.3c0,0.3-0.4,0.3-0.5,0.5c-0.2,0.4-0.6,1.1-0.6,1.3 c0,0.2-0.1,0.2,0.3,0.4v2c-0.3,0.2-0.5,0.5-0.5,0.6v1.3c0,0.3,0.2-0.1,0.2,0.2v4.9c-0.2,0.1-0.2,0.1-0.2,0.3h-0.7 c0-0.5-0.2-0.9-0.3-1.3c-0.1-0.1-0.1-0.1-0.2-0.1c-0.2-0.6,0-1-0.6-1.3c-0.1-0.4-0.1-1-0.5-1.1c-0.3-1.1-0.9-1.8-1.6-2.5 c-0.2-0.6-1-1.1-1.4-1.6c-0.2-0.4-0.3-0.8-0.8-1.2c-0.1-0.6-0.8-1-1.1-1.4c0.1-0.4-0.2-0.6-0.5-0.7c-0.4-1.1-0.6-1.7-1.4-2.5 c-0.2-0.8-0.5-0.9-0.8-1.6v-1.6c0.2,0,0.2-0.1,0.3-0.3h0.9c0.1,0.5,1.1,0.5,1.2,0.9H84c0.1-0.3,1.6-1.8,2-1.8 c0.3,0,0.4,0.2,0.4,0.3c0.1,0,0.3,0,0.4,0.1c0.2,0.4,0.7,0.5,0.9,0.8h0.7c0-0.1,0,0,0-0.3c0-0.3-0.5-1.3-0.9-1.9h1.3 c0.3,0.4,0.3,0.4,0.8,0.6v1.8c0.4,0.3,0.2,0.3,0.6,0.6V161.3z M105.3,155.2c-0.2,0-0.2,0-0.3,0.1c0,0.4-0.3,1.1-0.3,1.4 c0,0.2,0,0.2,0.2,0.4v1.8c0,0.3-0.1,0.1-0.2,0.2c0,0.3,0,0.6,0,0.8c-0.4,0.3-0.3,0.8-0.5,1.2c-0.4,0.4-0.7,1.2-1,1.4 c0,0.2,0,0.4-0.1,0.6c-0.3,0.3-0.4,0.8-0.7,1.1c-0.9,1-2.2,1.8-3,2.9c-0.3,0.3-0.2,0.8-0.3,1.4c-0.3,0.2-0.5,0.5-0.7,0.6 c0,0.3,0,0.7-0.1,1.1c-0.5,0.5-0.9,0.8-1.3,1.4h-0.5v-1c0.2,0,0.2,0,0.2-0.1c0.1-0.4,0.3-1.2,0.5-1.3c0-0.5,0.2-1,0.3-1.6 c0.1-0.1,0.2,0,0.2-0.1c0-0.8,0.3-1.6,0.3-2.5c0.3-0.2,0.3-0.2,0.3-0.4c0-0.1,0.1-0.1-0.3-0.3v-2.3c0,0,0.2,0,0.3-0.5 c0.3-0.2,0.5-0.6,0.7-0.9c0-0.2,0-0.4,0.1-0.6c0,0,0.2,0.2,0.2-0.1v-3.6c0.3-0.1,0.5-0.3,0.7-0.3c0.1-0.2,0.4-0.5,0.6-0.6v-3h0.6 v-0.2c0.2,0,0.5,0.1,0.7,0.2c0.1,0.2,0.3,0.3,0.3,0.5c0.1,0,0.2,0,0.2-0.2h1.1c0.1,0.2-0.2,0.2-0.3,0.3v0.9 c0.2,0.1,0.3,0.1,0.5,0.1c0.1,0,0.4,0.1,0.6-0.3h0.5c0,0.3,0.2,0.4,0.5,0.5V155.2z" style="fill: rgb(88, 88, 87);"/>
  </g>
</svg>